<svg xmlns="http://www.w3.org/2000/svg" viewBox="0 0 512 512" id="handshake">
  <path fill="#f2ddd4" d="M387 440.1C283.49 508 113.58 456.47 86.29 375.26c-4.49-13.34-10.41-40.63-1.82-69.07 13.75-45.46 51.43-52.16 50.68-84.71-.61-26.59-26-32.89-28.92-70.23 0 0-1.62-20.7 6.61-41.35C135.67 52.65 225.71 42.35 275.19 46c62.66 4.67 135 38.65 174.59 108.68 44.9 79.39 21.46 158.56 15.63 176.35-5.29 16.17-24.05 73.4-78.41 109.07Z"></path>
  <path fill="#ff7769" d="M408.69 177.42s-64.72 34-113.39 31.63-46.67-6.86-71.67-6.5-36.81-13.82-38.88-3 23.77 36.85 55.34 45.29a254.61 254.61 0 0 1-56.75 52.83c-44.34 29.94-88.27 38.4-88.07 58.46.07 6.11 4.22 12.69 9 16.53 10.24 8.31 24.38 4.8 26.77 4.17a17 17 0 0 0 1.44 6.95c2.55 5.67 7.68 8.22 11.49 10.12a33.5 33.5 0 0 0 11.77 3.34 34.26 34.26 0 0 0 9.86-.5 16.42 16.42 0 0 0 1.43 9 17.34 17.34 0 0 0 7.52 7.5c11.75 6.77 31.17-2.46 32-2.87-.77 2.89-1.16 6.54.7 9.32 4.71 7.06 21.44 2.82 28.1 1.16 34-8.49 61.16-33.13 71.7-42.93C352.19 336 342.67 333 368 315.2l79.34-38.39s-3.41-71.81-38.65-99.39Z"></path>
  <path fill="#b96062" d="M46 247.55s76.64 8.65 123.62-12.36 43.26-24.73 68-34 30.91-27.81 37.09-17.92-9.27 45.56-37.09 66a268.23 268.23 0 0 0 76 30.38c55.06 12.54 101.51 4 109 23.9 2.28 6.06.71 14.16-2.47 19.77-6.88 12.15-22.13 14.13-24.72 14.43a18 18 0 0 1 1.23 7.41c-.33 6.58-4.39 11.08-7.41 14.42a35.44 35.44 0 0 1-10.3 7.83 35.86 35.86 0 0 1-9.89 3.3 17.49 17.49 0 0 1 2.06 9.48 18.43 18.43 0 0 1-4.53 10.3c-9 11.21-31.59 9.56-32.56 9.48 1.87 2.55 3.65 6 2.89 9.47-1.93 8.79-20 11-27.2 11.95-36.63 4.68-72.82-9.21-86.94-14.83-60.52-24.12-52.28-30.69-84.06-38.53L46 360.65s-24.12-72.31 0-113.1Z"></path>
  <path fill="#fe9b7e" d="M107.36 376a15.4 15.4 0 0 1 .92-12.72c7.87-15.91 28.47-49.48 40.59-46.74s3 39.78 3 39.78 21.2-37.11 35.74-39.94 7.27 32.73 0 48.89c0 0 19.39-32.57 35.14-30.83s0 49.86 0 49.86 15.15-27.48 29.69-27.48 8.49 56.52 3.79 62.32-46.06 16.1-39.77-5.83c0 0-33.43 18.5-43.26-10.92 0 0-24.36 7.39-35.27-10.52-3.17-.38-25.66-3.49-30.57-15.87zm137.53-132.74-1.17 3.74s1.38.24 3.9.83c.83-1 1.65-2 2.47-3-1.75-.47-3.48-1-5.2-1.57z"></path>
  <path fill="#fe9b7e" d="M408.69 177.42s-64.72 34-113.39 31.63c-13-.62-22.36-1.4-29.61-2.2-3.23-.43-6.22-.87-8.93-1.3-2.45-.4-4.93-.7-7.41-1l-2.34-.37v.14c-15.14-1.35-30.67-1.1-44.71-6.6-3.3-1.29-13.63-5.6-18.92-1.12a9.3 9.3 0 0 0-2.9 5.42c-2.52 13.84 24.73 30.62 30 33.83A124.76 124.76 0 0 0 247 251c2 .49 4.31 1 6.82 1.45a183.15 183.15 0 0 0 36.52 17.07c25.78 8.72 42.68 7.9 93.91 13a1546.7 1546.7 0 0 1 41.62 4.72l21.52-10.42s-3.46-71.82-38.7-99.4Z"></path>
  <path fill="#c64e39" d="M138 393.39a1.34 1.34 0 0 1-.48-.08 1.5 1.5 0 0 1-.94-1.9c.06-.16 5.47-16.13 14-35.67a1.5 1.5 0 1 1 2.75 1.2c-8.45 19.42-13.83 35.28-13.89 35.43a1.49 1.49 0 0 1-1.44 1.02zm35.23 10.52h-.33a1.51 1.51 0 0 1-1.13-1.8 186.09 186.09 0 0 1 15.58-39.92 1.5 1.5 0 1 1 2.65 1.39 183.3 183.3 0 0 0-15.31 39.2 1.49 1.49 0 0 1-1.46 1.13zm43.26 10.92a1.51 1.51 0 0 1-1.5-1.45c0-.77-.59-19 6.54-29.88a1.5 1.5 0 1 1 2.51 1.65c-6.6 10.07-6.06 27.94-6 28.12a1.51 1.51 0 0 1-1.45 1.56z"></path>
  <path fill="#873030" d="M395.4 339.29h-.1c-35.84-2.26-82.48-15.21-82.95-15.34a1.5 1.5 0 1 1 .81-2.89c.46.13 46.81 13 82.33 15.24a1.5 1.5 0 0 1-.09 3zM369 372.25c-32.65-1.42-67.3-14.38-67.64-14.51a1.5 1.5 0 1 1 1.06-2.8c.34.12 34.55 12.91 66.71 14.31a1.5 1.5 0 0 1-.06 3zm-37.09 29.31c-15.48 0-38.54-7.9-39.56-8.25a1.5 1.5 0 1 1 1-2.83c.26.08 25.81 8.82 40.59 8a1.52 1.52 0 0 1 1.58 1.41 1.49 1.49 0 0 1-1.42 1.58c-.72.07-1.45.09-2.19.09z"></path>
  <path fill="#729e72" d="m415 94.67 5.37-15.74a3.48 3.48 0 0 1 6.58 0l5.37 15.74a3.48 3.48 0 0 0 2.17 2.16l15.74 5.38a3.47 3.47 0 0 1 0 6.57l-15.74 5.38a3.5 3.5 0 0 0-2.17 2.16L427 132.06a3.48 3.48 0 0 1-6.58 0L415 116.32a3.5 3.5 0 0 0-2.17-2.16l-15.73-5.38a3.47 3.47 0 0 1 0-6.57l15.73-5.38a3.48 3.48 0 0 0 2.17-2.16Z"></path>
  <path fill="#ff7769" d="m120.44 178.48 6.62-19.38a4.28 4.28 0 0 1 8.1 0l6.61 19.38a4.3 4.3 0 0 0 2.67 2.66l19.37 6.62a4.28 4.28 0 0 1 0 8.1l-19.37 6.61a4.32 4.32 0 0 0-2.67 2.67l-6.61 19.37a4.28 4.28 0 0 1-8.1 0l-6.62-19.37a4.29 4.29 0 0 0-2.67-2.67l-19.37-6.61a4.28 4.28 0 0 1 0-8.1l19.37-6.62a4.28 4.28 0 0 0 2.67-2.66zM427.38 379l5.62-16.34a3.59 3.59 0 0 1 6.81 0l5.53 16.34a3.6 3.6 0 0 0 2.25 2.24l16.31 5.57a3.6 3.6 0 0 1 0 6.82l-16.31 5.57a3.59 3.59 0 0 0-2.25 2.25l-5.57 16.31a3.6 3.6 0 0 1-6.81 0l-5.58-16.31a3.58 3.58 0 0 0-2.24-2.25l-16.31-5.57a3.6 3.6 0 0 1 0-6.82l16.31-5.57a3.59 3.59 0 0 0 2.24-2.24z"></path>
  <path fill="#729e72" d="m109.75 413.75 4.92-14.4a3.18 3.18 0 0 1 6 0l4.92 14.4a3.18 3.18 0 0 0 2 2l14.41 4.91a3.18 3.18 0 0 1 0 6l-14.41 4.92a3.17 3.17 0 0 0-2 2l-4.9 14.42a3.18 3.18 0 0 1-6 0l-4.92-14.4a3.16 3.16 0 0 0-2-2l-14.4-4.92a3.18 3.18 0 0 1 0-6l14.4-4.92a3.18 3.18 0 0 0 1.98-2.01Z"></path>
  <rect width="135.89" height="100.11" x="220.65" y="40.48" fill="#ffbd54" rx="2.02" transform="rotate(-180 288.59 90.535)"></rect>
  <path fill="#ffbd54" d="M342 136q-5.42 11.69-10.84 23.36a1.93 1.93 0 0 1-3.53-.06q-5-11.67-10-23.35a1.93 1.93 0 0 1 1.77-2.69h20.85A1.93 1.93 0 0 1 342 136Z"></path>
  <path fill="#fff" d="M253 85.27a39.92 39.92 0 1 1 39.91 39.92A40 40 0 0 1 253 85.27Zm6.31 0a33.6 33.6 0 1 0 33.6-33.6 33.63 33.63 0 0 0-33.57 33.6Z"></path>
  <path fill="#fff" d="M292.94 125.19a3.17 3.17 0 0 0 3.16-3.19V48.51a3.16 3.16 0 0 0-6.32 0V122a3.17 3.17 0 0 0 3.16 3.19Z"></path>
  <path fill="#fff" d="M264.39 111.58a3.14 3.14 0 0 0 2.23-.93l26.58-26.57 26.45 26.45a3.16 3.16 0 0 0 4.47-4.46l-28.69-28.69a3.17 3.17 0 0 0-4.47 0l-28.8 28.81a3.16 3.16 0 0 0 2.23 5.39Z"></path>
</svg>