<svg xmlns="http://www.w3.org/2000/svg" viewBox="0 0 64 64" id="bathtub">
  <line x1="64.08" x2="-.07" y1="29.52" y2="29.52" fill="none" stroke="#3c3b72" stroke-linecap="round" stroke-linejoin="round" stroke-width="3"></line>
  <line x1="51.08" x2="51.08" y1="18.56" y2="21.19" fill="none" stroke="#3c3b72" stroke-linecap="round" stroke-linejoin="round" stroke-width="3"></line>
  <line x1="43.08" x2="43.08" y1="21.19" y2="18.56" fill="none" stroke="#3c3b72" stroke-linecap="round" stroke-linejoin="round" stroke-width="3"></line>
  <line x1="47.08" x2="47.08" y1="21.19" y2="18.56" fill="none" stroke="#3c3b72" stroke-linecap="round" stroke-linejoin="round" stroke-width="3"></line>
  <line x1="16.8" x2="15.61" y1="55.2" y2="59.63" fill="none" stroke="#3c3b72" stroke-linecap="round" stroke-linejoin="round" stroke-width="3"></line>
  <path fill="#c4c8d1" stroke="#3c3b72" stroke-linecap="round" stroke-linejoin="round" stroke-width="3" d="M4,29.52H60a0,0,0,0,1,0,0v10a16,16,0,0,1-16,16H20a16,16,0,0,1-16-16v-10a0,0,0,0,1,0,0Z"></path>
  <line x1="51.08" x2="43.08" y1="13.93" y2="13.93" fill="none" stroke="#3c3b72" stroke-linecap="round" stroke-linejoin="round" stroke-width="3"></line>
  <path fill="none" stroke="#3c3b72" stroke-linecap="round" stroke-linejoin="round" stroke-width="3" d="M47.08,13.55V10.83a6.47,6.47,0,0,1,6.46-6.46h0A6.46,6.46,0,0,1,60,10.83V29.52"></path>
  <line x1="47.2" x2="48.39" y1="55.2" y2="59.63" fill="none" stroke="#3c3b72" stroke-linecap="round" stroke-linejoin="round" stroke-width="3"></line>
  <rect width="56" height="6.03" x="4" y="29.52" fill="#fffaf0" stroke="#3c3b72" stroke-linecap="round" stroke-linejoin="round" stroke-width="3"></rect>
  <rect width="14.72" height="15.5" x="15.61" y="27.02" fill="#ffe993" stroke="#3c3b72" stroke-linecap="round" stroke-linejoin="round" stroke-width="3"></rect>
</svg>