<svg xmlns="http://www.w3.org/2000/svg" viewBox="0 0 50 50" id="bed">
  <defs>
    <clipPath id="a">
      <rect width="50" height="50" fill="none" stroke-width="0"></rect>
    </clipPath>
  </defs>
  <g>
    <g>
      <g clip-path="url(#a)">
        <g>
          <path fill="#ca887c" stroke="#000" stroke-miterlimit="10" d="M41.5,6.5v13.22c-.64-.14-1.31-.22-2-.22h-5v-7.54c0-.86-.82-1.49-1.64-1.25l-.25.07c-4.64,1.35-9.58,1.35-14.22,0l-.25-.07c-.82-.24-1.64.39-1.64,1.25v7.54h-7c-.34,0-.67.02-1,.06V6.5c0-1.66,1.3-3,2.91-3h27.18c1.61,0,2.91,1.34,2.91,3Z"></path>
          <line x1="41.5" x2="41.5" y1="20" y2="19.72" fill="none" stroke="#000" stroke-miterlimit="10"></line>
          <line x1="8.5" x2="8.5" y1="20" y2="19.56" fill="none" stroke="#000" stroke-miterlimit="10"></line>
          <line x1="34.5" x2="34.5" y1="20" y2="19.5" fill="none" stroke="#000" stroke-miterlimit="10"></line>
          <line x1="16.5" x2="16.5" y1="20" y2="19.5" fill="none" stroke="#000" stroke-miterlimit="10"></line>
          <path fill="#d7e7ff" stroke="#000" stroke-linecap="round" stroke-miterlimit="10" d="M34.5,11.96v7.54h-18v-7.54c0-.86.82-1.49,1.64-1.25l.25.07c4.64,1.35,9.58,1.35,14.22,0l.25-.07c.82-.24,1.64.39,1.64,1.25Z"></path>
          <path fill="#fff" stroke="#000" stroke-linecap="round" stroke-miterlimit="10" d="M48.5,28.5v3H.5v-3c0-4.63,3.5-8.45,8-8.94.33-.04.66-.06,1-.06h30c.69,0,1.36.08,2,.22,4.01.91,7,4.5,7,8.78Z"></path>
          <rect width="48" height="8" x=".5" y="31.5" fill="#efa468" stroke="#000" stroke-linecap="round" stroke-miterlimit="10"></rect>
          <polygon fill="#dd5045" stroke="#000" stroke-miterlimit="10" points=".5 45.5 3.82 45.5 4.93 39.5 .5 39.5 .5 45.5"></polygon>
          <polygon fill="#dd5045" stroke="#000" stroke-miterlimit="10" points="48.5 45.5 45.18 45.5 44.07 39.5 48.5 39.5 48.5 45.5"></polygon>
        </g>
      </g>
    </g>
  </g>
</svg>