<svg xmlns="http://www.w3.org/2000/svg" viewBox="0 0 512 512" id="female-with-peace-hand">
  <g>
    <path fill="#f2ddd4" d="M437.49 185.29C373 13.24 231.74 39.2 173 86.27c-9.7 7.78-28 30.5-35.66 52.46-12.46 35.87 3.51 56.43-13.95 84.28-9.28 14.8-15.17 11.6-33.38 34.11-5.42 6.7-22.64 28-28.1 47.33-14.84 52.55 47.47 136 95.9 133.13 27.42-1.61 17.57-5.54 50.73-13.67 50.51-12.39 84.42 18.6 135.92 13 55.14-6 99.48-71.24 111.6-127.92 13.03-60.74-13.18-109.34-18.57-123.7Z"></path>
    <path fill="#ff7769" d="m132 178.78 4.05-11.86a2.62 2.62 0 0 1 4.95 0l4.05 11.86a2.64 2.64 0 0 0 1.63 1.63l11.86 4.05a2.62 2.62 0 0 1 0 4.95l-11.86 4.05a2.64 2.64 0 0 0-1.63 1.63L141 207a2.62 2.62 0 0 1-4.95 0L132 195.09a2.64 2.64 0 0 0-1.63-1.63l-11.86-4.05a2.62 2.62 0 0 1 0-4.95l11.86-4.05a2.64 2.64 0 0 0 1.63-1.63zm18.42-113.33 3.16-9.23a2 2 0 0 1 3.86 0l3.15 9.23a2.05 2.05 0 0 0 1.27 1.27l9.24 3.16a2 2 0 0 1 0 3.86l-9.24 3.15a2.1 2.1 0 0 0-1.27 1.27l-3.15 9.24a2 2 0 0 1-3.86 0l-3.16-9.24a2.05 2.05 0 0 0-1.27-1.27l-9.23-3.15a2 2 0 0 1 0-3.86l9.23-3.16a2 2 0 0 0 1.27-1.27zm240.27 46.01 4.05-11.86a2.62 2.62 0 0 1 5 0l4.05 11.86a2.61 2.61 0 0 0 1.63 1.63l11.86 4a2.62 2.62 0 0 1 0 5l-11.86 4a2.64 2.64 0 0 0-1.63 1.63l-4.05 11.86a2.62 2.62 0 0 1-5 0l-4.05-11.86a2.64 2.64 0 0 0-1.63-1.63l-11.86-4a2.62 2.62 0 0 1 0-5l11.86-4a2.61 2.61 0 0 0 1.63-1.63z"></path>
    <path fill="#427c54" d="M100.75 434.87a2 2 0 0 1-1.6-.77C75.77 404.61 70.84 361 70.81 329.55A343 343 0 0 1 76.37 268a2 2 0 1 1 4 .81c-.22 1.08-21.46 108 22 162.75a2 2 0 0 1-.33 2.86 2 2 0 0 1-1.29.45Z"></path>
    <path fill="#739e71" d="M78.59 387s-4.59-42.45 22.68-68.51 16.25 4.9 13.94 19.4-14.29 44.18-36.62 49.11zm-2.81-18.14s0-42.74-29.95-65.71-15.63 6.62-11.76 20.79S53 366.33 75.78 368.86z"></path>
    <circle cx="80.52" cy="254.21" r="42.03" fill="#ffbd54"></circle>
    <path fill="#ce7b30" d="M91 295.42a.51.51 0 0 1-.48-.35l-26-79.77a.51.51 0 1 1 1-.31l26 79.76a.51.51 0 0 1-.33.64.41.41 0 0 1-.19.03Z"></path>
    <path fill="#ce7b30" d="M48.77 282.25a.51.51 0 0 1-.31-.91l66.42-51.25a.52.52 0 0 1 .72.09.5.5 0 0 1-.1.71l-66.42 51.25a.51.51 0 0 1-.31.11Z"></path>
    <path fill="#ce7b30" d="M116.75 276a.46.46 0 0 1-.23-.06l-74.8-38a.51.51 0 1 1 .46-.9l74.8 38a.51.51 0 0 1 .22.69.52.52 0 0 1-.45.27Z"></path>
    <path fill="#ce7b30" d="M63.44 293.13a.65.65 0 0 1-.19 0 .5.5 0 0 1-.28-.66l31.4-77.91a.52.52 0 0 1 .67-.28.51.51 0 0 1 .28.66l-31.41 77.87a.51.51 0 0 1-.47.32Z"></path>
    <path fill="#ce7b30" d="M38.66 258.58a.51.51 0 0 1-.51-.5.5.5 0 0 1 .49-.52l83.86-2.33a.51.51 0 1 1 0 1l-83.86 2.34Z"></path>
    <path fill="#ce7b30" d="M106.07 288.07a.5.5 0 0 1-.39-.18l-54-64.22a.51.51 0 0 1 .06-.72.52.52 0 0 1 .72.06l54.05 64.23a.5.5 0 0 1-.07.71.44.44 0 0 1-.37.12Z"></path>
    <path fill="#ce7b30" d="M75.61 296.46a.52.52 0 0 1-.48-.54l5.19-83.49a.53.53 0 0 1 .54-.48.5.5 0 0 1 .47.54L76.12 296a.51.51 0 0 1-.51.46Z"></path>
    <path fill="#ce7b30" d="M42 271.44a.51.51 0 0 1-.19-1l35.94-13.91 27.15-35.28a.51.51 0 0 1 .81.62l-27.27 35.41a.6.6 0 0 1-.22.17l-36.07 14zm38.54-13.7a.51.51 0 0 1-.15-1l41.05-12a.51.51 0 1 1 .28 1l-41 12z"></path>
    <circle cx="80.57" cy="253.89" r="25.55" fill="#ffcea1"></circle>
    <path fill="#427c54" d="M402.9 462.82a2 2 0 0 1-1.51-3.39c46.84-51.95 32.4-159.95 32.25-161a2 2 0 1 1 4-.56 344.05 344.05 0 0 1 1.65 61.77c-2 31.35-9.71 74.59-34.91 102.54a2 2 0 0 1-1.48.64Z"></path>
    <path fill="#739e71" d="M427.92 416.49s7.29-42.12-18.3-69.85-16.53 3.86-15.14 18.48 11.46 45 33.44 51.37zm3.95-17.97s2.71-42.65 34.05-63.68 15.18 7.6 10.42 21.5-21.61 41.1-44.47 42.18z"></path>
    <circle cx="434.4" cy="283.81" r="42.03" fill="#ffbd54"></circle>
    <path fill="#ce7b30" d="M421.33 324.26a.63.63 0 0 1-.19 0 .5.5 0 0 1-.28-.66l31-78a.51.51 0 1 1 .95.37l-31 78a.51.51 0 0 1-.48.29Z"></path>
    <path fill="#ce7b30" d="M464.34 313.8a.46.46 0 0 1-.33-.13L401 258.32a.52.52 0 0 1 0-.72.51.51 0 0 1 .72 0l63.05 55.35a.51.51 0 0 1-.34.89Z"></path>
    <path fill="#ce7b30" d="M396.9 303.27a.5.5 0 0 1-.47-.3.51.51 0 0 1 .26-.67l77.06-33.2a.51.51 0 0 1 .4.94l-77 33.19a.51.51 0 0 1-.25.04Z"></path>
    <path fill="#ce7b30" d="M449 323.72a.5.5 0 0 1-.48-.34l-26.41-79.75a.51.51 0 0 1 .32-.64.5.5 0 0 1 .64.32l26.41 79.75a.5.5 0 0 1-.32.64.44.44 0 0 1-.16.02Z"></path>
    <path fill="#ce7b30" d="M475.93 290.82h-.05l-83.54-7.64a.51.51 0 0 1-.46-.55.52.52 0 0 1 .55-.46L476 289.8a.51.51 0 0 1 .46.55.52.52 0 0 1-.53.47Z"></path>
    <path fill="#ce7b30" d="M406.79 316a.47.47 0 0 1-.35-.14.52.52 0 0 1 0-.72l58-60.67a.51.51 0 0 1 .74.7l-58 60.68a.53.53 0 0 1-.39.15Z"></path>
    <path fill="#ce7b30" d="M436.65 326.28a.5.5 0 0 1-.5-.51l.11-83.65a.5.5 0 0 1 .5-.51.51.51 0 0 1 .51.51l-.11 83.65a.51.51 0 0 1-.51.51Z"></path>
    <path fill="#ce7b30" d="M471.81 303.44a.52.52 0 0 1-.21 0l-35.11-16.22a.6.6 0 0 1-.21-.18L411.34 250a.5.5 0 1 1 .84-.56l24.87 36.93 35 16.15a.51.51 0 0 1 .24.68.5.5 0 0 1-.48.24zm-37.62-16.11a.47.47 0 0 1-.17 0l-40.21-14.53a.51.51 0 0 1 .35-1l40.2 14.53a.51.51 0 0 1-.17 1z"></path>
    <circle cx="434.37" cy="283.48" r="25.55" fill="#ffcea1"></circle>
    <path fill="#000002" d="M199.15 147.49c-26.53 102.63 10.63 187.26 62.92 203.77 44.59 14.08 111.49-17.8 121.13-57.28 4.36-17.84-5.08-28.55-14.55-62.45a308.07 308.07 0 0 1-10.47-102.82 168.27 168.27 0 0 0-63.58-11.93c-47.29.45-81.46 21.08-95.45 30.71Z"></path>
    <path fill="#4e4e56" d="M232 290.4a.5.5 0 0 1-.24-.06c-9.34-5.11-21.56-18.87-26.71-55.45a254 254 0 0 1-2.14-41.89.49.49 0 0 1 .53-.48.51.51 0 0 1 .49.53c0 .79-3.41 79 28.33 96.38a.51.51 0 0 1-.24 1zm22.6-7.65a.46.46 0 0 1-.29-.1c-30.31-21.94-37.1-77.87-37.16-78.43a.51.51 0 0 1 .44-.57.52.52 0 0 1 .57.45c.06.56 6.8 56 36.74 77.73a.51.51 0 0 1-.3.92zm105.13 19.72h-.16a.51.51 0 0 1-.32-.65c12-36.49-12.77-99.49-13-100.13a.5.5 0 0 1 .28-.66.51.51 0 0 1 .66.29c.25.63 25.17 64 13 100.82a.5.5 0 0 1-.46.33zM330 278.1a.58.58 0 0 1-.18 0 .51.51 0 0 1-.29-.66c11.27-29 4.73-59.29 4.66-59.59a.51.51 0 1 1 1-.22c.06.3 6.67 30.87-4.71 60.18a.52.52 0 0 1-.48.29z"></path>
    <path fill="#ff7769" d="M215 155.53c-.88-.68-5.68-4.27-11.84-3.11-.9.17-4.48.85-6.66 3.41-5.64 6.63-1.1 25 10.36 28.56 6.4 2 12.58-1.4 14.65-2.66Z"></path>
    <path fill="#c64e39" d="M210.51 178.21a.5.5 0 0 1-.31-.1c-3-2.34-4.6-5-4.62-7.77 0-3.25 2-5.94 3.38-7.4l-8.84 1.42a.51.51 0 0 1-.59-.42.52.52 0 0 1 .42-.58l10.48-1.69a.53.53 0 0 1 .55.3.51.51 0 0 1-.15.6c-.05 0-4.27 3.45-4.24 7.77 0 2.49 1.45 4.83 4.23 7a.52.52 0 0 1 .09.72.5.5 0 0 1-.4.15Z"></path>
    <path fill="#ff7769" d="M347.31 155.53c.89-.68 5.69-4.27 11.84-3.11.9.17 4.49.85 6.66 3.41 5.65 6.63 1.1 25-10.36 28.56-6.4 2-12.58-1.4-14.65-2.66Z"></path>
    <path fill="#c64e39" d="M351.8 178.21a.5.5 0 0 1-.4-.19.52.52 0 0 1 .09-.72c2.79-2.13 4.21-4.47 4.23-7 0-4.32-4.19-7.73-4.23-7.77a.51.51 0 0 1-.15-.6.52.52 0 0 1 .54-.3l10.48 1.69a.5.5 0 0 1 .42.58.5.5 0 0 1-.58.42l-8.84-1.42c1.38 1.46 3.4 4.15 3.38 7.4 0 2.82-1.58 5.43-4.63 7.77a.5.5 0 0 1-.31.14Z"></path>
    <rect width="48.33" height="84.41" x="254.6" y="184.74" fill="#ff7769" rx="16.52"></rect>
    <circle cx="280.74" cy="144.75" r="72.95" fill="#fe9b7e"></circle>
    <path fill="#fe9b7e" d="M353.69 133.93c6.11 50-28.18 91.2-66 94.37-34.26 2.87-65.2-26-75.7-55.33a79.34 79.34 0 0 1-4.22-33.16c10.48-7.49 30.12-16.32 55.87-23.19 30.82-8.23 67.29-9.7 90.05 17.31Z"></path>
    <path fill="#7d6fdb" d="M302.94 236c12.64 2.15 30.54 7.4 42.85 22 15.8 18.79 12.46 41.24 13.63 91.39.46 19.53 1.71 47.87 5.4 82.56 0 0-81.79 29.32-164.36 9.26a365.31 365.31 0 0 0 10.48-57.63C218.09 312.2 201 268.89 226 246.82c4.69-4.15 13.18-9.6 28.61-10.85 4.27 17.1 20.48 25.86 32.48 22 8.38-2.72 14.6-11.54 15.85-21.97Z"></path>
    <path fill="#7d6fdb" d="M317.5 240.17s30.38 7.69 40.8 21.19 29.7 118.45 22 131.56-34.73 34.34-60.58-5.78Z"></path>
    <path fill="#fe9b7e" d="M332.2 315.6s-14.33-36.13-7-39.93 15.73 28.17 15.73 28.17-2.53-29.34 4.15-31.09 8.14 32.44 8.14 32.44S364 305.71 364 313c0 0 7.46 3.22 6.17 10.33s-5.66 11.42-5.23 16.5 3.71 10 3.71 10-13.83 9.74-26.36 7.06c0 0-1-11.83-4.48-16.85S324 327.18 332.2 315.6Z"></path>
    <path fill="#c64e39" d="M346.24 333.28a.49.49 0 0 1-.44-.26s-2.65-4.57-6.82-5.55a.51.51 0 0 1-.39-.45.5.5 0 0 1 .3-.51c3.5-1.53 8.92-4.66 8.54-6.6s-3.31-4.13-15.22-3.8a.51.51 0 0 1-.52-.5.5.5 0 0 1 .49-.52c10.14-.27 15.6 1.28 16.25 4.62.54 2.76-5.28 5.9-7.94 7.18a14.25 14.25 0 0 1 6.19 5.63.51.51 0 0 1-.19.69.47.47 0 0 1-.25.07Z"></path>
    <path fill="#c64e39" d="M358.46 329.11a3.3 3.3 0 0 1-1.55-.36 2.6 2.6 0 0 1-1.37-1.75c-.6-2.29 1.09-6 2.43-8.42-1.61 1.12-3.86 2.32-6 2.26a4.24 4.24 0 0 1-3.08-1.4c-3.84-4.18 3.56-14.14 3.88-14.56a.51.51 0 1 1 .81.61c-2 2.69-6.66 10.31-3.94 13.26a3.25 3.25 0 0 0 2.36 1.08c3.33.1 7.41-3.74 7.45-3.77a.51.51 0 0 1 .68 0 .5.5 0 0 1 .09.67c-1.27 1.91-4.42 7.43-3.75 10a1.62 1.62 0 0 0 .85 1.11c2.89 1.48 8.39-4 10.26-6.19a.51.51 0 0 1 .78.66c-.21.32-5.74 6.8-9.9 6.8Z"></path>
    <path fill="#5955a5" d="M252.37 361.48s43.26-17.61 58.67-39.82 6.92 8.72-3.88 19.87-30.48 27.5-28.55 28.78 35.88-17.4 30.86-8.83-37.81 39.82-53.63 45.6 7-16.59 5-19.29-35.24 6.15-35.08-4.24 5.53-11.86 26.61-22.07Z"></path>
    <path fill="#fe9b7e" d="M168.2 418.66a50.7 50.7 0 0 0 17.92 14.63c3.52 1.69 8.27 4 14.69 4.27 9 .39 10.45-5.05 20.4-4.92a50.2 50.2 0 0 1 12.59 1.59c3.95 1.19 7.71 3.06 9.77 1.37a3.18 3.18 0 0 0 1.16-2.17c0-.74-.34-1.55-1.89-3a19.22 19.22 0 0 0-5.35-3.47c6 1.59 10.7 1.25 11.84-1a2.81 2.81 0 0 0 .26-1.61c-.41-4.12-7.62-5.77-7.62-5.77s9.27 1.44 9.48-2.27-6-6.39-12.37-6.39c0 0 5.53-.26 6.17-2.68a3 3 0 0 0-.6-2.26c-2.65-3.94-27.48-1.93-37.09-1a50.62 50.62 0 0 1-15.05-13.81c-1.35-1.92-2.55-4-4.74-4.33-4.38-.69-8.81 6.08-11.08 9.56a56.52 56.52 0 0 0-8.49 23.26Z"></path>
    <path fill="#7d6fdb" d="M241.33 238.84a84.51 84.51 0 0 0-31.55 8.16c-8 3.88-22 12.37-45.71 49.19a406.12 406.12 0 0 0-32.8 62.31l44.56 19.5 65.5-79.48s16.89-29.07 0-59.68Z"></path>
    <path fill="#7d6fdb" d="M203.42 400.57c-5.83-8.49-13.44-19.34-22.57-31.83-15-20.55-19.39-25.29-25.85-25.85-10.44-.91-22 9.45-25.47 19.6-6.74 19.78 12.71 49.42 50.93 71.06a45.63 45.63 0 0 0 12.35-10 46.81 46.81 0 0 0 10.61-22.98Z"></path>
    <path fill="#c64e39" d="M217.5 412.13a.51.51 0 0 1-.11-1c.56-.13 13.87-3.09 21.79-1.61a.5.5 0 0 1-.19 1c-7.71-1.43-21.24 1.58-21.38 1.61zm3.5 8.24a.51.51 0 0 1-.1-1c.12 0 12.09-2.59 21.18-1.2a.51.51 0 0 1-.16 1c-8.9-1.36-20.69 1.17-20.81 1.19zm17 7.28a.46.46 0 0 1-.23-.06 23.13 23.13 0 0 0-6.16-2 22.81 22.81 0 0 0-8 0 .51.51 0 0 1-.18-1 23.66 23.66 0 0 1 8.35 0 23.37 23.37 0 0 1 6.44 2.15.5.5 0 0 1 .22.68.5.5 0 0 1-.44.23z"></path>
    <path fill="#524b92" d="M213.1 333.79a1 1 0 0 1-.47-.12 1 1 0 0 1-.42-1.38c17.7-33.33 9.39-84.6 9.3-85.11a1 1 0 0 1 2-.34c.09.52 8.51 52.46-9.52 86.41a1 1 0 0 1-.89.54zm149.48 75.54a27.19 27.19 0 0 1-15.64-4.65c-12.49-8.85-15.73-29.45-7.88-50.1a1 1 0 0 1 .57-.58 1 1 0 0 1 .82 0 22.91 22.91 0 0 0 7.12 2.1c9.76 1.18 17.5-4.53 20.38-7a1 1 0 0 1 1.5.18c.38.54 9.38 13.38 11.21 26.66a1 1 0 0 1-2 .28c-1.49-10.82-8.16-21.68-10.23-24.85-3.61 2.92-11.4 8-21.08 6.79a24.52 24.52 0 0 1-6.75-1.83c-7 19.43-4 38.53 7.54 46.7a25.19 25.19 0 0 0 14.48 4.28 1 1 0 1 1 0 2z"></path>
    <ellipse cx="324.46" cy="178.39" fill="#fb6355" rx="6.99" ry="10.19" transform="rotate(-89.41 324.468 178.386)"></ellipse>
    <ellipse cx="247.75" cy="178.39" fill="#fb6355" rx="6.99" ry="10.19" transform="rotate(-89.41 247.756 178.384)"></ellipse>
    <path fill="#c64e39" d="M284.23 176.28a38.34 38.34 0 0 1-3.91-.22 1 1 0 1 1 .21-2c3.68.39 7.49.15 8-.49.49-1.22-1.28-10.09-3.22-17.57a1 1 0 1 1 2-.51c2 7.86 4.2 17.61 2.86 19.32-.96 1.19-3.52 1.47-5.94 1.47Z"></path>
    <path fill="#000002" d="M245.37 142.18a18.48 18.48 0 0 1 10.31-4.31c2.57-.27 6.05-.63 7.29 1.3a2.82 2.82 0 0 1 .16 2.85c-1.08 1.72-4.24.5-9.15.84-6.47.46-10.47 3.25-11 2.35-.33-.64 1.62-2.36 2.39-3.03zm80.98 0a18.52 18.52 0 0 0-10.35-4.31c-2.58-.27-6.06-.63-7.29 1.3a2.82 2.82 0 0 0-.16 2.85c1.08 1.72 4.23.5 9.15.84 6.46.46 10.47 3.25 11 2.35.37-.64-1.58-2.36-2.35-3.03z"></path>
    <path fill="#fff" d="M286.51 204.16a23.18 23.18 0 0 1-22.46-17.11 215.32 215.32 0 0 0 22.64 1.06 217.14 217.14 0 0 0 22.14-1.24c-4.09 10.24-12.93 17.25-22.32 17.29Z"></path>
    <path fill="#c64e39" d="M285.23 210.09a11.16 11.16 0 0 1-6.74-1.94.5.5 0 0 1-.1-.71.51.51 0 0 1 .71-.1c4.38 3.28 11.87.85 11.94.83a.51.51 0 0 1 .65.32.52.52 0 0 1-.33.64 21 21 0 0 1-6.13.96Z"></path>
    <path fill="#020202" fill-rule="evenodd" d="M310.87 152.27a7.07 7.07 0 1 0 9.91 1.41 7 7 0 0 0-9.91-1.41"></path>
    <path fill="#020202" d="M330 152.65a8.73 8.73 0 0 1-3.55 2.46 4.64 4.64 0 0 1-3.61-.45c-1.17-.62-2.33-1.69-3.77-2.5a6.05 6.05 0 0 0-4.81-.81 9.13 9.13 0 0 1 3.82 2.21 22.91 22.91 0 0 0 3.7 3 5.58 5.58 0 0 0 5.36.1 5.83 5.83 0 0 0 2.86-4"></path>
    <path fill="#020202" fill-rule="evenodd" d="M262 153.16a7.07 7.07 0 1 1-9.86 1.76 7.05 7.05 0 0 1 9.86-1.76"></path>
    <path fill="#020202" d="M242.92 154.23a8.71 8.71 0 0 0 3.64 2.32 4.66 4.66 0 0 0 3.59-.57c1.14-.67 2.26-1.78 3.68-2.64a6.06 6.06 0 0 1 4.77-1 9.21 9.21 0 0 0-3.74 2.34 21.9 21.9 0 0 1-3.59 3.17 5.57 5.57 0 0 1-5.35.29 5.82 5.82 0 0 1-3-3.93"></path>
    <path fill="#000002" d="M298.69 91.15s-47.56 60.34-102.19 64.68c0 0 17.59-132.94 111.54-84 0 0 49.69-35.57 55.93 82.42a55.4 55.4 0 0 1-11.91-1.89c-35.23-9.63-50.13-51.42-53.37-61.21Z"></path>
    <path fill="#524b92" d="M180.85 369.75a1 1 0 0 1-.6-.19c-20.69-15.2-35.28-4.79-35.9-4.33a1 1 0 0 1-1.21-1.64c.16-.12 16.37-11.79 38.31 4.33a1 1 0 0 1-.6 1.83Z"></path>
    <path fill="#4e4e56" d="M205.27 148.47a.51.51 0 0 1-.13-1c36.52-9.7 79-62.68 79.46-63.21a.5.5 0 0 1 .71-.08.51.51 0 0 1 .09.71c-.43.54-43.15 53.77-80 63.56zm2.26-19.72a.52.52 0 0 1-.48-.33.5.5 0 0 1 .29-.65c.41-.16 40.61-15.84 75-47.79a.52.52 0 0 1 .72 0 .51.51 0 0 1 0 .72c-34.5 32.09-74.88 47.84-75.28 48a.39.39 0 0 1-.25.05zM354.52 142h-.15c-27.17-8.29-51.64-53.45-51.88-53.91a.51.51 0 1 1 .9-.48c.24.45 24.51 45.25 51.28 53.41a.52.52 0 0 1 .33.64.5.5 0 0 1-.48.34z"></path>
    <path fill="#4e4e56" d="M358.18 123.58c-26.41 0-49.54-35.09-49.77-35.44a.49.49 0 0 1 .15-.7.5.5 0 0 1 .7.14c.23.35 23.06 35 48.92 35a.51.51 0 1 1 0 1Z"></path>
    <path fill="#ff7769" d="m461.14 167.13 2.27-6.65a1.47 1.47 0 0 1 2.78 0l2.27 6.65a1.46 1.46 0 0 0 .92.91l6.65 2.27a1.48 1.48 0 0 1 0 2.79l-6.65 2.27a1.46 1.46 0 0 0-.92.91l-2.27 6.65a1.47 1.47 0 0 1-2.78 0l-2.27-6.65a1.46 1.46 0 0 0-.92-.91l-6.65-2.27a1.47 1.47 0 0 1 0-2.79l6.65-2.27a1.46 1.46 0 0 0 .92-.91Z"></path>
  </g>
</svg>