<svg xmlns="http://www.w3.org/2000/svg" viewBox="0 0 512 512" id="female-army">
  <g>
    <path fill="#f2ddd4" d="M405 464.42H101.53c-22.27 0-40.31-12.38-40.31-27.64V177.25c0-5.79 2.64-11.44 7.58-16.14 19.29-18.33 72.77-60.65 161.94-66.72C310.84 89 390 114.78 437.81 161.17c4.85 4.69 7.48 10.29 7.48 16v259.61c0 15.22-18.05 27.64-40.29 27.64Z"></path>
    <path fill="#427c54" d="M382 471.18a1.92 1.92 0 0 1-1.42-3.2c45.51-50.48 31.48-155.43 31.34-156.48a1.91 1.91 0 1 1 3.79-.53 332.31 332.31 0 0 1 1.61 60c-2 30.45-9.43 72.44-33.89 99.58a1.92 1.92 0 0 1-1.43.63Z"></path>
    <path fill="#739e71" d="M406.3 426.23s7.08-40.92-17.77-67.86-16.06 3.75-14.71 17.95S385 420 406.3 426.23zm3.84-17.46s2.63-41.44 33.07-61.86 14.75 7.38 10.13 20.88-20.99 39.92-43.2 40.98z"></path>
    <circle cx="412.6" cy="297.33" r="40.83" fill="#7d6fdb"></circle>
    <path fill="#49448a" d="M399.9 336.62a.39.39 0 0 1-.18 0 .47.47 0 0 1-.26-.62l30.11-75.73a.48.48 0 0 1 .89.35l-30.11 75.74a.5.5 0 0 1-.45.26Z"></path>
    <path fill="#49448a" d="M441.69 326.45a.47.47 0 0 1-.32-.12l-61.25-53.77a.47.47 0 0 1 0-.67.49.49 0 0 1 .68-.05l61.2 53.77a.49.49 0 0 1 .05.68.48.48 0 0 1-.36.16Z"></path>
    <path fill="#49448a" d="M376.16 316.23a.48.48 0 0 1-.19-.92l74.86-32.25a.49.49 0 0 1 .63.25.48.48 0 0 1-.25.63l-74.86 32.25a.41.41 0 0 1-.19.04Z"></path>
    <path fill="#49448a" d="M426.79 336.09a.46.46 0 0 1-.45-.32l-25.66-77.47a.48.48 0 0 1 .31-.6.47.47 0 0 1 .6.3l25.66 77.46a.49.49 0 0 1-.31.61.39.39 0 0 1-.15.02Z"></path>
    <path fill="#49448a" d="m452.94 304.13-81.16-7.42a.47.47 0 0 1-.43-.52.47.47 0 0 1 .52-.43l81.13 7.41a.48.48 0 0 1-.05 1Z"></path>
    <path fill="#49448a" d="M385.78 328.58a.47.47 0 0 1-.33-.14.49.49 0 0 1 0-.68l56.35-58.93a.48.48 0 0 1 .7.66l-56.36 58.94a.46.46 0 0 1-.36.15Z"></path>
    <path fill="#49448a" d="M414.79 338.58a.48.48 0 0 1-.48-.48l.11-81.26a.47.47 0 0 1 .47-.48.47.47 0 0 1 .47.48l-.1 81.26a.49.49 0 0 1-.47.48Z"></path>
    <path fill="#49448a" d="M448.94 316.39a.51.51 0 0 1-.2 0l-34.1-15.75a.55.55 0 0 1-.2-.17l-24.23-36a.48.48 0 1 1 .79-.54l24.16 35.88 34 15.7a.47.47 0 0 1-.2.91zm-36.54-15.65a.51.51 0 0 1-.17 0l-39.06-14.14a.49.49 0 0 1-.28-.62.49.49 0 0 1 .61-.29l39.06 14.12a.48.48 0 0 1 .29.61.49.49 0 0 1-.45.32z"></path>
    <circle cx="412.57" cy="297.02" r="24.82" fill="#aba1ff"></circle>
    <path fill="#ffbd54" d="m112.87 69.47 3.69-10.81a2.39 2.39 0 0 1 4.52 0l3.7 10.81a2.38 2.38 0 0 0 1.48 1.53l10.82 3.69a2.39 2.39 0 0 1 0 4.52l-10.82 3.69a2.38 2.38 0 0 0-1.48 1.49l-3.7 10.81a2.39 2.39 0 0 1-4.52 0l-3.69-10.81a2.4 2.4 0 0 0-1.49-1.49l-10.81-3.69a2.39 2.39 0 0 1 0-4.52L111.38 71a2.4 2.4 0 0 0 1.49-1.53Z"></path>
    <path fill="#ff7769" d="m106.75 384.14 4.78-14a3.09 3.09 0 0 1 5.85 0l4.78 14a3.09 3.09 0 0 0 1.92 1.93l14 4.77a3.09 3.09 0 0 1 0 5.85l-14 4.78a3.09 3.09 0 0 0-1.92 1.93l-4.78 14a3.09 3.09 0 0 1-5.85 0l-4.78-14a3.09 3.09 0 0 0-1.92-1.93l-14-4.78a3.09 3.09 0 0 1 0-5.85l14-4.77a3.09 3.09 0 0 0 1.92-1.93Z"></path>
    <path fill="#ffbd54" d="m389.77 169.18 3.34-9.77a2.15 2.15 0 0 1 4.08 0l3.34 9.77a2.13 2.13 0 0 0 1.34 1.34l9.77 3.34a2.15 2.15 0 0 1 0 4.08l-9.77 3.34a2.13 2.13 0 0 0-1.34 1.34l-3.34 9.77a2.15 2.15 0 0 1-4.08 0l-3.34-9.77a2.13 2.13 0 0 0-1.34-1.34l-9.77-3.34a2.15 2.15 0 0 1 0-4.08l9.77-3.34a2.13 2.13 0 0 0 1.34-1.34Z"></path>
    <path fill="#ff7769" d="m338 56.66 3.69-10.82a2.39 2.39 0 0 1 4.52 0l3.69 10.82a2.4 2.4 0 0 0 1.49 1.49l10.81 3.69a2.39 2.39 0 0 1 0 4.52l-10.8 3.69a2.4 2.4 0 0 0-1.49 1.49l-3.69 10.81a2.39 2.39 0 0 1-4.52 0L338 71.54a2.4 2.4 0 0 0-1.49-1.49l-10.81-3.69a2.39 2.39 0 0 1 0-4.52l10.81-3.69a2.4 2.4 0 0 0 1.49-1.49Z"></path>
    <circle cx="251.1" cy="157.24" r="79.49" fill="#000002"></circle>
    <path fill="#739e71" d="M187.62 249.94A379 379 0 0 0 227 245c-1.27 9.19-5.94 22.71-13.4 38.58-9.13 19.39-23.1 39-42.47 39.78-19.6-.36-88.71-2.94-112.19-31.94-2.92-3.6-9.88-12.2-7.45-20.07 2.62-8.45 14.8-12 30.43-14.88 41.28-7.73 67.27-3.7 105.7-6.53Z"></path>
    <path fill="#ff7769" d="M319.65 161.78c.92-.7 5.88-4.41 12.24-3.21.93.18 4.64.87 6.89 3.52 5.84 6.85 1.14 25.86-10.71 29.54-6.62 2.05-13-1.45-15.15-2.76q3.36-13.54 6.73-27.09Z"></path>
    <path fill="#c64e39" d="M324.29 185.19a.47.47 0 0 1-.38-.19.48.48 0 0 1 .09-.67c2.89-2.22 4.37-4.65 4.39-7.24 0-4.5-4.35-8-4.39-8.06a.48.48 0 0 1-.14-.57.46.46 0 0 1 .51-.28l10.83 1.74a.48.48 0 1 1-.15 1l-9.28-1.49c1.42 1.47 3.61 4.29 3.58 7.72 0 2.9-1.63 5.58-4.76 8a.47.47 0 0 1-.3.04Z"></path>
    <path fill="#ff7769" d="M182.85 161.78c-.92-.7-5.88-4.41-12.25-3.21-.93.18-4.63.87-6.88 3.52-5.84 6.85-1.14 25.86 10.71 29.54 6.62 2.05 13-1.45 15.15-2.76q-3.36-13.54-6.73-27.09Z"></path>
    <path fill="#c64e39" d="M178.21 185.19a.47.47 0 0 1-.3-.1c-3.13-2.41-4.74-5.09-4.76-8 0-3.43 2.16-6.25 3.57-7.72l-9.27 1.49a.48.48 0 1 1-.15-1l10.83-1.74a.47.47 0 0 1 .51.28.48.48 0 0 1-.14.57s-4.43 3.57-4.39 8.07c0 2.58 1.5 5 4.39 7.23a.47.47 0 0 1 .08.67.44.44 0 0 1-.37.25Z"></path>
    <rect width="49.97" height="87.28" x="223.8" y="191.98" fill="#ff7769" rx="15.58"></rect>
    <circle cx="251.68" cy="150.64" r="75.42" fill="#fe9b7e"></circle>
    <path fill="#fe9b7e" d="M176.26 139.45c-6.32 51.72 29.13 94.3 68.2 97.57 35.43 3 67.42-26.91 78.28-57.2a82.24 82.24 0 0 0 4.36-34.29c-10.84-7.74-31.15-16.87-57.77-24-31.83-8.53-69.54-10.01-93.07 17.92Z"></path>
    <ellipse cx="206.47" cy="185.41" fill="#fb6355" rx="10.53" ry="7.22" transform="rotate(-.59 205.896 185.575)"></ellipse>
    <ellipse cx="285.79" cy="185.41" fill="#fb6355" rx="10.53" ry="7.22" transform="rotate(-.59 285.531 185.014)"></ellipse>
    <path fill="#c64e39" d="M248.12 183.14c-2.45 0-5.14-.3-6.08-1.5-1.42-1.84 1.26-13.26 3-19.9a1 1 0 0 1 1.86.48c-2 7.8-3.86 17-3.29 18.3.51.65 4.41.9 8.32.49a.94.94 0 0 1 1.05.85 1 1 0 0 1-.85 1.06c-.82.08-2.35.22-4.01.22Z"></path>
    <path fill="#000002" d="M288.26 148a19.16 19.16 0 0 0-10.67-4.46c-2.66-.28-6.26-.65-7.54 1.35a2.92 2.92 0 0 0-.16 2.94c1.12 1.78 4.38.52 9.46.88 6.68.47 10.82 3.35 11.34 2.43.37-.69-1.64-2.46-2.43-3.14zm-83.74 0a19.12 19.12 0 0 1 10.67-4.46c2.66-.28 6.25-.65 7.53 1.35a2.89 2.89 0 0 1 .16 2.94c-1.11 1.78-4.37.52-9.45.88-6.69.47-10.83 3.35-11.34 2.43-.38-.69 1.64-2.46 2.43-3.14z"></path>
    <path fill="#c64e39" d="M250.52 209.34a19 19 0 0 1-1.94-.09.48.48 0 0 1 .1-1c.08 0 8.21.86 11.94-3.43a.49.49 0 0 1 .68-.05.48.48 0 0 1 0 .68c-2.87 3.39-7.99 3.89-10.78 3.89Z"></path>
    <path fill="#020202" fill-rule="evenodd" d="M220.53 158.41a7.31 7.31 0 1 1-10.25 1.46 7.31 7.31 0 0 1 10.25-1.46"></path>
    <path fill="#020202" d="M200.79 158.8a9 9 0 0 0 3.68 2.55 4.79 4.79 0 0 0 3.72-.47c1.21-.64 2.41-1.74 3.9-2.58a6.24 6.24 0 0 1 5-.84 9.68 9.68 0 0 0-3.95 2.28 23.23 23.23 0 0 1-3.83 3.14 5.77 5.77 0 0 1-5.54.1 6 6 0 0 1-3-4.18"></path>
    <path fill="#020202" fill-rule="evenodd" d="M271.07 159.33a7.31 7.31 0 1 0 10.19 1.82 7.28 7.28 0 0 0-10.19-1.82"></path>
    <path fill="#020202" d="M290.79 160.43a9 9 0 0 1-3.77 2.41 4.78 4.78 0 0 1-3.71-.6c-1.18-.68-2.34-1.83-3.8-2.72a6.26 6.26 0 0 0-4.94-1 9.69 9.69 0 0 1 3.87 2.43 23.42 23.42 0 0 0 3.71 3.27 5.76 5.76 0 0 0 5.53.3 6 6 0 0 0 3.11-4.07"></path>
    <path fill="#000002" d="M233.12 95.21s49.18 62.39 105.66 66.88c0 0-18.19-137.45-115.33-86.87 0 0-51.37-36.78-57.83 85.22a58.21 58.21 0 0 0 12.32-1.95c36.42-9.94 51.83-53.16 55.18-63.28Z"></path>
    <path fill="#4e4e56" d="M329.71 154.43h-.12c-38.08-10.12-82.25-65.15-82.69-65.7a.49.49 0 0 1 .1-.73.48.48 0 0 1 .67.08c.44.55 44.41 55.34 82.18 65.37a.48.48 0 0 1 .34.59.47.47 0 0 1-.48.39zm-2.33-20.38a.35.35 0 0 1-.17 0c-.42-.16-42.16-16.43-77.82-49.61a.48.48 0 0 1 0-.68.49.49 0 0 1 .68 0c35.52 33 77.1 49.26 77.51 49.42a.48.48 0 0 1 .28.62.5.5 0 0 1-.48.25zM175.4 147.78a.48.48 0 0 1-.14-.94c27.69-8.44 52.8-54.78 53.05-55.25a.49.49 0 0 1 .65-.2.48.48 0 0 1 .19.65c-.25.47-25.54 47.16-53.61 55.72z"></path>
    <path fill="#4e4e56" d="M171.61 128.71a.49.49 0 0 1-.48-.48.48.48 0 0 1 .48-.48c26.77 0 50.39-35.83 50.62-36.2a.47.47 0 0 1 .66-.13.46.46 0 0 1 .14.66c-.23.36-24.14 36.63-51.42 36.63Z"></path>
    <path fill="#fe9b7e" d="M109.3 179s27.44-36.95 49.37-47.61c20.5-10 41.92-18.1 44.12-14.3a1.85 1.85 0 0 1 .17 1c-.13 7.48-16.67 11.48-31.32 25.82 0 0-4.41 4.32-3.61 5.45 1.09 1.52 11-5 13.7-2.2a2.83 2.83 0 0 1 .64 1.94c.12 5.84-14.14 11.74-18.83 14.19-8.79 4.59-19.34 15.5-25.53 44a31 31 0 0 1-18.52-7.64A31.46 31.46 0 0 1 109.3 179Z"></path>
    <path fill="#739e71" d="M110.25 174c-46 38.9-68.95 82.37-56.32 108.65a36.48 36.48 0 0 0 11.94 13.81c10.13 5.92 17.24 5.87 21.87 4.73 18-4.42 22.07-31.1 52-97.63 2.16-4.8 4-8.78 5.26-11.52zm214.33 258.46c-.87-23.4-.44-42.29.06-54.68 2.19-54.95 8.1-80.93-8.1-107.12a77.8 77.8 0 0 0-14.36-17.08c-6-2.39-15.2-4.16-18.69-6-5.56-2.92-3.82-8.9-7.76-10.37-5.15-1.94-8.42 4.79-19.5 7.05-3.82.78-9.79 2-16-.49-5.32-2.12-14.22-8.29-18-8.17a1.81 1.81 0 0 0-1.35.4c-.57.6-.17 2-.92 5.27-1 4.61-6.14 4.54-6.14 4.54-9.38 3-23.31 9-33.82 21.91-17.22 21.13-13 46.18-14.1 94.49-.47 20.2-1.76 49.5-5.58 85.37 0 0 84.57 30.32 169.93 9.57-1.65-6.28-3.71-14.64-5.67-24.69z"></path>
    <path fill="#739e71" d="M293.57 250.84s47.86 12.37 54.65 48.78 13.11 143.21 13.11 143.21-18 12.37-37 15.71-33.45-35.68-33.45-35.68 10.78-68.73 10.78-68.07-8.09-103.95-8.09-103.95Z"></path>
    <path fill="#5d825b" d="M108.69 214.67s-6.11 1.13-6 7.12 5.34 7.44 10.52 12.62 10.52-1.94 12.62-9.87 6.15-16.83 0-19-12.06 5.65-17.14 9.13zm74.48 94.82s-10.48 10.68 6.41 19.91 44.77-1.11 52.83 10.85 22.73-2.24 12.81-23-16.69-29.79-31.42-26.88-40.63 19.12-40.63 19.12zM279 323.31s-9.67 8.33 6.45 19.9S317 350 315.79 329.4 294 311.88 279 323.31zm27.56 52.85s-9.9 1.94-6.13 22 16.59 11 29.28 14.89 19.52-16.48 11.57-28.63-34.72-8.26-34.72-8.26zM201.12 350s-4.19 5.54 5.76 25.55-2.68 25.84 12.37 25.84 19.58-12.55 18.93-25.69S218 338.53 201.12 350zM77.66 226.06c6.8-1.55 5.82-10.1 8.09-16.46s11.65-4 10.36-14a12.91 12.91 0 0 0-2.49-6.34A197.9 197.9 0 0 0 64.7 225c4.71 1 9.87 1.77 12.96 1.06zM129.14 287c-13.72-6.8-30.09 6.61-45 3.4s-9.22-11.65-22.33-16A12 12 0 0 0 51 276.09c.64 6.34 5.53 12.4 7.86 15.28C76 312.44 117.09 319.56 145.83 322c3.26-16.18-3.83-28.64-16.69-35zm-17.82-25.73c4.85 16.51 22.33-2.43 31.07 4.86s19.69 20.44 35.82 13.13 24.28-2.45 28-13.62c1.52-4.61.35-11.2-1.56-17.35-6.08.73-11.77 1.27-17 1.65-25.6 1.89-45.68.73-68.44 2 .67-1.66 1.37-3.38 2.09-5.14-6.48 1.99-12.46 6.06-9.98 14.47zm162.45 2.21c2 15.59 29.09-6 39.15 10.28s8.73 19.55 24 16.64a18.44 18.44 0 0 0 7.14-3.11c-9.39-18.54-29.75-28.83-41.54-33.44l-.3-.27a79.52 79.52 0 0 0-7.66-2.47l-.95-.27c-4.12-1.15-8.06-2.19-10.08-3.24a8.76 8.76 0 0 1-1.31-.87c-5.06 4.19-9.32 9.86-8.45 16.75zM180 386.52c-8.39-21.36 11.62-23.3 5.15-36.49-3.29-6.7-11.58-9.12-19-9.87 0 6.79 0 14.1-.24 22.07-.38 16.51-1.32 39.12-3.74 66.41 8.44-.76 18.08-2.93 24.24-8.46 12.97-11.65 1.93-12.3-6.41-33.66zm93.66 25.89c1.81-17.48-23.82-26.54-32.89-9.71s-9.06 21.36-29.06 32c-9.94 5.26-11.36 15-10.28 23.44 24.7 4.7 58.21 8.46 94 4.92a54.5 54.5 0 0 0-5.56-13.06c-11.74-20.11-18.03-20.11-16.21-37.59zm74.56-45.96a36 36 0 0 0 9.08 18.08c-1.75-22.43-3.93-47.15-6.27-66-4.31 4.43-8 9.36-9.75 14.29-5.36 15.51 2.41 10.98 6.94 33.63zm-23.93 92.09c19.07-3.34 37-15.71 37-15.71s-.69-11.71-1.86-28.7c-3.74-.37-7.35.76-9.31 5.4-5.17 12.3-5.17 20.07-25.87 27.19-8.19 2.82-11.21 8.38-11.87 14.07q5.9-1 11.82-2.24z"></path>
    <path fill="#000002" d="M166.22 324.15a1 1 0 0 1-1-1c.06-12.15 5.48-40.75 5.71-42a1 1 0 0 1 1.89.36c-.06.3-5.63 29.65-5.68 41.62a1 1 0 0 1-.92 1.02Z"></path>
    <path fill="#426040" d="M178.29 313.79s-3.06 39.77-.95 43.6 21.92 13 25.43 12.86 20.94-10.46 21.34-13.57 1.64-38.84 1.37-40.19-47.19-2.7-47.19-2.7Z"></path>
    <path fill="#000002" d="M199.23 332.05c-8.09 0-21.48-5.62-22.09-5.87a1 1 0 1 1 .75-1.77c.15.07 15.77 6.62 22.94 5.63 7.41-1 24.15-4.44 24.32-4.48a1 1 0 0 1 .38 1.88c-.17 0-17 3.46-24.44 4.49a13.63 13.63 0 0 1-1.86.12Z"></path>
    <circle cx="199.28" cy="324.29" r="4.26" fill="#000002"></circle>
    <path fill="#426040" d="M310 315.87s-.41 39.89-2.84 43.52-23 11.07-26.45 10.61-19.95-12.24-20.08-15.38 1.74-38.83 2.13-40.15 47.24 1.4 47.24 1.4Z"></path>
    <path fill="#000002" d="M289.41 332.32a16.73 16.73 0 0 1-3.7-.35c-7.35-1.68-23.79-6.55-24-6.6a1 1 0 0 1 .55-1.84c.16.05 16.55 4.91 23.84 6.57 7.07 1.61 23.18-3.56 23.34-3.61a1 1 0 1 1 .59 1.82c-.54.19-12.46 4.01-20.62 4.01Z"></path>
    <circle cx="288.18" cy="324.51" r="4.26" fill="#000002"></circle>
    <path fill="#000002" d="M137.84 208.74a1.07 1.07 0 0 1-.25 0c-19.77-5.27-39.23-23.67-39.42-23.85a1 1 0 1 1 1.32-1.39c.19.18 19.31 18.24 38.6 23.39a1 1 0 0 1-.25 1.88Z"></path>
    <circle cx="133.38" cy="198.2" r="5.56" fill="#000002"></circle>
    <path fill="#000002" d="M248.41 259.12c-.55 0-1.11 0-1.7-.05-20.1-1-29.82-13-30.22-13.53a1 1 0 1 1 1.5-1.19c.1.12 9.62 11.87 28.82 12.81 6 .29 10.25-1 12.51-3.91 3.22-4.13 1.42-10.26 1.4-10.32a1 1 0 0 1 .64-1.2 1 1 0 0 1 1.19.64c.09.29 2.12 7.12-1.71 12-2.43 3.17-6.61 4.75-12.43 4.75Z"></path>
    <path fill="#000002" d="M257.77 256.88a1 1 0 0 1-.16-1.9c.16 0 15.76-2.66 22.71-10a1 1 0 0 1 1.35 0 1 1 0 0 1 0 1.36c-7.39 7.81-23.12 10.46-23.79 10.57Z"></path>
    <circle cx="253.25" cy="251.26" r="3.82" fill="#000002"></circle>
    <path fill="#020202" d="M248 203.69a24.4 24.4 0 0 1-14.19-4.7.48.48 0 0 1-.12-.67.49.49 0 0 1 .67-.12c15.12 10.55 28.64-.6 28.77-.71a.49.49 0 0 1 .68 0 .48.48 0 0 1-.06.68 26.8 26.8 0 0 1-15.75 5.52Z"></path>
    <path fill="#000002" d="M89.47 277.76a1 1 0 0 1-.54-.16 1 1 0 0 1-.25-1.33c.55-.81 13.66-19.94 30.2-25.23a1 1 0 0 1 .59 1.83c-15.92 5.08-29.07 24.28-29.2 24.47a1 1 0 0 1-.8.42Z"></path>
    <path fill="#739e71" d="M318.74 107.36s-63.29 19-145.64 3.83c0 0 1.22-12.6 3.06-25.94 2.42-17.57 3.92-26.41 6.8-30.39 3.19-4.4 10.19-10.42 60-11.73 56.26-1.47 64.75 5.75 68.21 10.82 2 2.9 2.83 7.76 4.45 17.36a216.88 216.88 0 0 1 3.12 36.05Z"></path>
    <path fill="#5d825b" d="M204 82.32s-8.48-.09-7.94 6.29 12.1 5.46 12.87 12.79 18.1 7.42 21.54 4 10.28-6.05 7.89-14.85-19.52-7.66-34.36-8.23zm-7.87-13.84c8.58-6.76 5.59-16.6 10.38-22.94-17.51 2.51-21.37 6.21-23.51 9.18s-3.54 8.66-5.1 18.61c5.55.48 12.41-.25 18.23-4.85zM227.08 50c1.66 8.28 13.9 1.52 13.86 9.82s-4.16 10.32 5.56 14 13.65-1.19 18.33-9 8.33-6.78 14.71-11.38c2.61-1.89 2.85-5.86 2.23-9.87a358.36 358.36 0 0 0-38.4-.68c-5.17.14-9.87.33-14.17.55-1.62 1.98-2.6 4.19-2.12 6.56zm65.61 50.41c-8.79 1.17-11.7-2.75-15.33-7s-10.74-1.25-14.19 4.83-2.48 7.55-16.87 9.44c-6 .78-6.37 4.93-4.78 9.51a341 341 0 0 0 65.54-6.73 32.27 32.27 0 0 1-1-3.68c-.66-3.68-4.57-7.54-13.37-6.37zM311.22 54c-1.55-2.27-4.12-5-11.57-7.14-3 2.73-5.42 5.8-5.14 8.35.69 6.32 6.26 9.23 3.07 14s-6.17 10-3.26 13.7 11.21-2.11 12.87 4.94 3.33 11.83 11.4 11.95a215.83 215.83 0 0 0-2.92-28.4c-1.62-9.69-2.48-14.55-4.45-17.4z"></path>
    <path fill="#426040" d="M178.28 111.91a15.61 15.61 0 0 0 11.45 14c9.32 3.08 18.82-1.82 32.79-3.94 17.52-2.65 34.82.17 38.1.7a149.36 149.36 0 0 0 15.58 1.83 113.31 113.31 0 0 0 11.77.27c3.77-.26 14-1.88 26.14-16.11-5.77-.91-13.37-2-22.32-2.8a383.66 383.66 0 0 0-47.32-1.36 419 419 0 0 0-66.19 7.41Z"></path>
    <path fill="#000002" d="M174 104.81h-.14a1 1 0 0 1 0-1.92h.14c.6 0 6.35-.1 26.58-3.59 23.3-4 54.8-7 73.35-3.47 19.54 3.75 39.91 4 44.49 3a1 1 0 1 1 .44 1.87c-5.39 1.28-26.79.61-45.29-2.94-18.3-3.52-49.53-.51-72.66 3.48-20.07 3.4-25.91 3.57-26.91 3.57zm151.12 353.32a1 1 0 0 1-.95-.86c-5.55-55.1-6-149.77-6-150.72a1 1 0 0 1 1-1 1 1 0 0 1 1 1c0 .95.43 95.53 6 150.54a1 1 0 0 1-.86 1.05z"></path>
    <path fill="#426040" d="m263.683 300.758 47.002 2.126-.43 9.51-47.002-2.126zM179.2 301.71h47.05v9.52H179.2z"></path>
  </g>
</svg>