<svg xmlns="http://www.w3.org/2000/svg" viewBox="0 0 81.042 72" id="gender-equality">
  <g>
    <path fill="#ff4d4d" d="M.0416,8.9584c26.0653-14.77,52.1306,13.2363,78.1959,1.4277a1.9933,1.9933,0,0,1,2.8041,1.826V61.7658A1.9883,1.9883,0,0,1,79.9925,63.53C53.3422,77.4733,26.6919,47.8566.0416,62.9584Z"></path>
    <path fill="#ff9100" d="M.0416,17.9584c27-15.3,54,15.3,81,0V61.7658A1.9883,1.9883,0,0,1,79.9925,63.53C53.3422,77.4733,26.6919,47.8566.0416,62.9584Z"></path>
    <path fill="#fabe2c" d="M.0416,26.9584c27-15.3,54,15.3,81,0V61.7658A1.9883,1.9883,0,0,1,79.9925,63.53C53.3422,77.4733,26.6919,47.8566.0416,62.9584Z"></path>
    <path fill="#59c36a" d="M.0416,35.9584c27-15.3,54,15.3,81,0V61.7658A1.9883,1.9883,0,0,1,79.9925,63.53C53.3422,77.4733,26.6919,47.8566.0416,62.9584Z"></path>
    <path fill="#6aa8ff" d="M.0416,44.9584c27-15.3,54,15.3,81,0V61.7658A1.9883,1.9883,0,0,1,79.9925,63.53C53.3422,77.4733,26.6919,47.8566.0416,62.9584Z"></path>
    <path fill="#7984ec" d="M.0416,53.9584c27-15.3,54,15.3,81,0v7.8074A1.9883,1.9883,0,0,1,79.9925,63.53C53.3422,77.4733,26.6919,47.8566.0416,62.9584Z"></path>
    <path fill="#bc572a" d="M4,0H5A4,4,0,0,1,9,4V70a2,2,0,0,1-2,2H2a2,2,0,0,1-2-2V4A4,4,0,0,1,4,0Z"></path>
  </g>
</svg>