<svg xmlns="http://www.w3.org/2000/svg" xmlns:xlink="http://www.w3.org/1999/xlink" viewBox="0 0 977 997" id="digital-wallet-payment">
  <defs>
    <linearGradient id="c" x1="650.18" x2="650.18" y1="436.96" y2="412.53" gradientTransform="rotate(-180 650.185 424.145)" gradientUnits="userSpaceOnUse">
      <stop offset="0" stop-color="#0087a5"></stop>
      <stop offset="1" stop-color="#009fb7"></stop>
    </linearGradient>
    <linearGradient id="d" x1="650.18" x2="650.18" y1="495" y2="518.09" gradientUnits="userSpaceOnUse">
      <stop offset="0" stop-color="#0089a7"></stop>
      <stop offset="1" stop-color="#009fb7"></stop>
    </linearGradient>
    <linearGradient id="e" x1="650.18" x2="650.18" y1="534.51" y2="633.4" gradientUnits="userSpaceOnUse">
      <stop offset="0" stop-color="#009fb7"></stop>
      <stop offset="1" stop-color="#007f9f"></stop>
    </linearGradient>
    <linearGradient id="f" x1="473.76" x2="826.61" y1="465.44" y2="465.44" gradientUnits="userSpaceOnUse">
      <stop offset="0" stop-color="#003664"></stop>
      <stop offset=".33" stop-color="#00416d"></stop>
      <stop offset=".57" stop-color="#00416d"></stop>
      <stop offset="1" stop-color="#00033e"></stop>
    </linearGradient>
    <linearGradient id="g" x1="526.68" x2="623.82" y1="385.56" y2="385.56" gradientUnits="userSpaceOnUse">
      <stop offset="0" stop-color="#009fb7"></stop>
      <stop offset="1" stop-color="#009fb7" stop-opacity="0"></stop>
    </linearGradient>
    <linearGradient id="h" x1="456.61" x2="456.61" y1="454.44" y2="551.6" gradientUnits="userSpaceOnUse">
      <stop offset="0" stop-color="#009fb7"></stop>
      <stop offset="1" stop-color="#009fb7" stop-opacity="0"></stop>
    </linearGradient>
    <linearGradient id="i" x1="713.38" x2="398.42" y1="722.26" y2="722.26" gradientUnits="userSpaceOnUse">
      <stop offset="0" stop-color="#bfcfda"></stop>
      <stop offset="1" stop-color="#407192"></stop>
    </linearGradient>
    <linearGradient id="a" x1="491.66" x2="491.66" y1="667.83" y2="800.31" gradientUnits="userSpaceOnUse">
      <stop offset="0" stop-color="#405a80"></stop>
      <stop offset="1" stop-color="#8091ab"></stop>
    </linearGradient>
    <linearGradient xlink:href="#a" id="j" x1="491.74" x2="491.74" y1="803.59" y2="665.62"></linearGradient>
    <linearGradient id="k" x1="329.55" x2="329.55" y1="291.93" y2="406.7" gradientUnits="userSpaceOnUse">
      <stop offset="0" stop-color="#00416d"></stop>
      <stop offset="1" stop-color="#002c5d"></stop>
    </linearGradient>
    <linearGradient id="b" x1="518.64" x2="577.85" y1="306.34" y2="306.34" gradientUnits="userSpaceOnUse">
      <stop offset="0" stop-color="#009fb7"></stop>
      <stop offset="1" stop-color="#ff4a0b"></stop>
    </linearGradient>
    <linearGradient xlink:href="#b" id="l" x1="462" x2="500.03" y1="248.56" y2="216.56"></linearGradient>
    <linearGradient id="m" x1="678.15" x2="750.63" y1="718.38" y2="718.38" gradientUnits="userSpaceOnUse">
      <stop offset="0" stop-color="#ff4a0b"></stop>
      <stop offset="1" stop-color="#ff0e00"></stop>
    </linearGradient>
    <linearGradient id="n" x1="679.04" x2="747.89" y1="718.38" y2="718.38" gradientUnits="userSpaceOnUse">
      <stop offset="0" stop-color="#ffa585"></stop>
      <stop offset="1" stop-color="#ff875d"></stop>
    </linearGradient>
  </defs>
  <g>
    <rect width="352.85" height="237.49" x="473.76" y="402.71" fill="#009fb7" rx="7.42" ry="7.42"></rect>
    <rect width="352.85" height="28.04" x="473.76" y="410.13" fill="url(#c)" transform="rotate(180 650.185 424.145)"></rect>
    <rect width="352.85" height="28.04" x="473.76" y="492.72" fill="url(#d)"></rect>
    <path fill="url(#e)" d="m473.76,529.36v103.41c0,4.08,3.34,7.42,7.42,7.42h338.01c4.08,0,7.42-3.34,7.42-7.42v-103.41h-352.85Z"></path>
    <rect width="352.85" height="54.55" x="473.76" y="438.17" fill="url(#f)"></rect>
    <rect width="67.92" height="66.46" x="486.05" y="561.44" fill="#fcfcfc" opacity=".5" rx="5" ry="5"></rect>
    <rect width="67.92" height="66.46" x="566.26" y="561.44" fill="#fff" opacity=".25" rx="5" ry="5"></rect>
    <g>
      <rect width="26.11" height="13.83" x="788.21" y="587.95" fill="#fff" opacity=".25" rx="4.37" ry="4.37"></rect>
      <rect width="104.45" height="13.83" x="709.87" y="614.07" fill="#fff" opacity=".25" rx="4.37" ry="4.37"></rect>
      <rect width="66.04" height="13.83" x="709.87" y="587.95" fill="#fff" opacity=".5" rx="4.37" ry="4.37"></rect>
      <path fill="#fff" d="m809.95,575.66l-95.7-.38c-2.41,0-4.37-1.96-4.37-4.37v-5.09c0-2.41,1.96-4.37,4.37-4.37l95.7.38c2.41,0,4.37,1.96,4.37,4.37v5.09c0,2.41-1.96,4.37-4.37,4.37Z" opacity=".5"></path>
    </g>
  </g>
  <rect width="112.62" height="8.78" x="514.72" y="381.17" fill="url(#g)"></rect>
  <rect width="8.78" height="112.62" x="452.22" y="443.63" fill="url(#h)"></rect>
  <g>
    <path fill="#009fb7" d="M458.93 244.75c-.96 2.45-1.74 5.3-2.3 8.51-.75 4.31-4.5 7.43-8.91 7.43H166.97c-9.14 0-16.58 7.44-16.58 16.58v141.98c0 9.14 7.44 16.58 16.58 16.58h262.29s15.17 0 15.17 0c4.3 0 7.8 3.5 7.8 7.8v8.78h8.78v-8.78h0c0-9.14-7.44-16.58-16.58-16.58h-16.55s-260.91 0-260.91 0c-4.3 0-7.8-3.5-7.8-7.8v-141.98c0-4.3 3.5-7.8 7.8-7.8h280.76c8.69 0 16.07-6.18 17.56-14.7.47-2.72 1.11-5.08 1.89-7.01.2-.5.44-.97.66-1.46l-8.9-1.55ZM514.72 310.73h8.78v-8.78h-8.78c-9.14 0-16.58 7.44-16.58 16.58v54.83c0 9.14 7.44 16.58 16.58 16.58h8.78v-8.78h-8.78c-4.3 0-7.8-3.5-7.8-7.8v-54.83c0-4.3 3.5-7.8 7.8-7.8Z"></path>
  </g>
  <path fill="#00416d" d="m739.98,614.16h-266.22v-45.15h-67.68c-14.95,0-27.19,12.23-27.19,27.19v222.53h.02c-.28,7.45,2.41,14.52,7.59,19.89,5.18,5.38,12.13,8.34,19.58,8.34h33.07s300.83,0,300.83,0c7.48,0,13.59-6.12,13.59-13.59v-205.6c0-7.48-6.12-13.59-13.59-13.59Z"></path>
  <path fill="#002457" d="m739.98,614.16h-266.22v-45.15h-67.24c-14.92,0-27.05,11.48-27.6,26.14-.28,7.45,2.41,14.52,7.59,19.89,5.18,5.38,12.13,8.34,19.58,8.34h333.9c7.48,0,13.59,6.12,13.59,13.59v-9.22c0-7.48-6.12-13.59-13.59-13.59Z"></path>
  <path fill="url(#i)" d="m673.41,827.55h-3.84c-.11,0-.19.09-.19.19s.09.19.19.19h3.84c.11,0,.19-.09.19-.19s-.09-.19-.19-.19Zm-22.1-185.15h-3.84c-.11,0-.19.09-.19.19s.09.19.19.19h3.84c.11,0,.19-.09.19-.19s-.09-.19-.19-.19Zm29.79,185.15h-3.84c-.11,0-.19.09-.19.19s.09.19.19.19h3.84c.11,0,.19-.09.19-.19s-.09-.19-.19-.19Zm-6.74-185.15h-3.84c-.11,0-.19.09-.19.19s.09.19.19.19h3.84c.11,0,.19-.09.19-.19s-.09-.19-.19-.19Zm-16.32,185.15h-3.84c-.11,0-.19.09-.19.19s.09.19.19.19h3.84c.11,0,.19-.09.19-.19s-.09-.19-.19-.19Zm7.68,0h-3.84c-.11,0-.19.09-.19.19s.09.19.19.19h3.84c.11,0,.19-.09.19-.19s-.09-.19-.19-.19Zm-6.74-185.15h-3.84c-.11,0-.19.09-.19.19s.09.19.19.19h3.84c.11,0,.19-.09.19-.19s-.09-.19-.19-.19Zm7.68,0h-3.84c-.11,0-.19.09-.19.19s.09.19.19.19h3.84c.11,0,.19-.09.19-.19s-.09-.19-.19-.19Zm37.47,185.15h-3.84c-.11,0-.19.09-.19.19s.09.19.19.19h3.84c.11,0,.19-.09.19-.19s-.09-.19-.19-.19Zm.95-185.15h-3.84c-.11,0-.19.09-.19.19s.09.19.19.19h3.84c.11,0,.19-.09.19-.19s-.09-.19-.19-.19Zm-7.68,0h-3.84c-.11,0-.19.09-.19.19s.09.19.19.19h3.84c.11,0,.19-.09.19-.19s-.09-.19-.19-.19Zm-8.63,185.15h-3.84c-.11,0-.19.09-.19.19s.09.19.19.19h3.84c.11,0,.19-.09.19-.19s-.09-.19-.19-.19Zm7.68,0h-3.84c-.11,0-.19.09-.19.19s.09.19.19.19h3.84c.11,0,.19-.09.19-.19s-.09-.19-.19-.19Zm-14.42-185.15h-3.84c-.11,0-.19.09-.19.19s.09.19.19.19h3.84c.11,0,.19-.09.19-.19s-.09-.19-.19-.19Zm7.68,0h-3.84c-.11,0-.19.09-.19.19s.09.19.19.19h3.84c.11,0,.19-.09.19-.19s-.09-.19-.19-.19Zm-84.52,0h-3.84c-.11,0-.19.09-.19.19s.09.19.19.19h3.84c.11,0,.19-.09.19-.19s-.09-.19-.19-.19Zm7.68,0h-3.84c-.11,0-.19.09-.19.19s.09.19.19.19h3.84c.11,0,.19-.09.19-.19s-.09-.19-.19-.19Zm6.74,185.15h-3.84c-.11,0-.19.09-.19.19s.09.19.19.19h3.84c.11,0,.19-.09.19-.19s-.09-.19-.19-.19Zm-7.68,0h-3.84c-.11,0-.19.09-.19.19s.09.19.19.19h3.84c.11,0,.19-.09.19-.19s-.09-.19-.19-.19Zm99.89,0h-3.84c-.11,0-.19.09-.19.19s.09.19.19.19h3.84c.11,0,.19-.09.19-.19s-.09-.19-.19-.19Zm-61.47,0h-3.84c-.11,0-.19.09-.19.19s.09.19.19.19h3.84c.11,0,.19-.09.19-.19s-.09-.19-.19-.19Zm-46.1,0h-3.84c-.11,0-.19.09-.19.19s.09.19.19.19h3.84c.11,0,.19-.09.19-.19s-.09-.19-.19-.19Zm16.32-185.15h-3.84c-.11,0-.19.09-.19.19s.09.19.19.19h3.84c.11,0,.19-.09.19-.19s-.09-.19-.19-.19Zm-24,185.15h-3.84c-.11,0-.19.09-.19.19s.09.19.19.19h3.84c.11,0,.19-.09.19-.19s-.09-.19-.19-.19Zm46.1,0h-3.84c-.11,0-.19.09-.19.19s.09.19.19.19h3.84c.11,0,.19-.09.19-.19s-.09-.19-.19-.19Zm-6.74-185.15h-3.84c-.11,0-.19.09-.19.19s.09.19.19.19h3.84c.11,0,.19-.09.19-.19s-.09-.19-.19-.19Zm-8.63,185.15h-3.84c-.11,0-.19.09-.19.19s.09.19.19.19h3.84c.11,0,.19-.09.19-.19s-.09-.19-.19-.19Zm16.32-185.15h-3.84c-.11,0-.19.09-.19.19s.09.19.19.19h3.84c.11,0,.19-.09.19-.19s-.09-.19-.19-.19Zm-15.37,0h-3.84c-.11,0-.19.09-.19.19s.09.19.19.19h3.84c.11,0,.19-.09.19-.19s-.09-.19-.19-.19Zm6.74,185.15h-3.84c-.11,0-.19.09-.19.19s.09.19.19.19h3.84c.11,0,.19-.09.19-.19s-.09-.19-.19-.19Zm-37.47-185.15h-3.84c-.11,0-.19.09-.19.19s.09.19.19.19h3.84c.11,0,.19-.09.19-.19s-.09-.19-.19-.19Zm136.84,106.5c-.11,0-.19.09-.19.19v3.84c0,.11.09.19.19.19s.19-.09.19-.19v-3.84c0-.11-.09-.19-.19-.19Zm0,7.68c-.11,0-.19.09-.19.19v3.84c0,.11.09.19.19.19s.19-.09.19-.19v-3.84c0-.11-.09-.19-.19-.19Zm0,7.68c-.11,0-.19.09-.19.19v3.84c0,.11.09.19.19.19s.19-.09.19-.19v-3.84c0-.11-.09-.19-.19-.19Zm0-30.73c-.11,0-.19.09-.19.19v3.84c0,.11.09.19.19.19s.19-.09.19-.19v-3.84c0-.11-.09-.19-.19-.19Zm0,7.68c-.11,0-.19.09-.19.19v3.84c0,.11.09.19.19.19s.19-.09.19-.19v-3.84c0-.11-.09-.19-.19-.19Zm0-15.37c-.11,0-.19.09-.19.19v3.84c0,.11.09.19.19.19s.19-.09.19-.19v-3.84c0-.11-.09-.19-.19-.19Zm0-7.68c-.11,0-.19.09-.19.19v3.84c0,.11.09.19.19.19s.19-.09.19-.19v-3.84c0-.11-.09-.19-.19-.19Zm0,53.79c-.11,0-.19.09-.19.19v3.84c0,.11.09.19.19.19s.19-.09.19-.19v-3.84c0-.11-.09-.19-.19-.19Zm0,46.1c-.11,0-.19.09-.19.19v3.84c0,.11.09.19.19.19s.19-.09.19-.19v-3.84c0-.11-.09-.19-.19-.19Zm0-15.37c-.11,0-.19.09-.19.19v3.84c0,.11.09.19.19.19s.19-.09.19-.19v-3.84c0-.11-.09-.19-.19-.19Zm0,7.68c-.11,0-.19.09-.19.19v3.84c0,.11.09.19.19.19s.19-.09.19-.19v-3.84c0-.11-.09-.19-.19-.19Zm0-15.37c-.11,0-.19.09-.19.19v3.84c0,.11.09.19.19.19s.19-.09.19-.19v-3.84c0-.11-.09-.19-.19-.19Zm0-7.68c-.11,0-.19.09-.19.19v3.84c0,.11.09.19.19.19s.19-.09.19-.19v-3.84c0-.11-.09-.19-.19-.19Zm0-7.68c-.11,0-.19.09-.19.19v3.84c0,.11.09.19.19.19s.19-.09.19-.19v-3.84c0-.11-.09-.19-.19-.19Zm-.42,46.19c-.45,1.05-1.47,1.73-2.62,1.73h-.29c-.11,0-.19.09-.19.19s.09.19.19.19h.29c1.3,0,2.46-.77,2.97-1.97.04-.1,0-.21-.1-.25-.1-.04-.21,0-.25.1Zm-21.17-183.42h-3.84c-.11,0-.19.09-.19.19s.09.19.19.19h3.84c.11,0,.19-.09.19-.19s-.09-.19-.19-.19Zm19.16.45c1.2.26,2.11,1.3,2.22,2.52,0,.1.09.18.19.18,0,0,.01,0,.02,0,.11,0,.18-.1.17-.21-.12-1.41-1.14-2.56-2.52-2.87-.1-.02-.21.04-.23.15-.02.1.04.21.15.23Zm-3.8-.45h-3.84c-.11,0-.19.09-.19.19s.09.19.19.19h3.84c.11,0,.19-.09.19-.19s-.09-.19-.19-.19Zm6.22,68.08c-.11,0-.19.09-.19.19v3.84c0,.11.09.19.19.19s.19-.09.19-.19v-3.84c0-.11-.09-.19-.19-.19Zm-14.85,117.07h-3.84c-.11,0-.19.09-.19.19s.09.19.19.19h3.84c.11,0,.19-.09.19-.19s-.09-.19-.19-.19Zm.95-185.15h-3.84c-.11,0-.19.09-.19.19s.09.19.19.19h3.84c.11,0,.19-.09.19-.19s-.09-.19-.19-.19Zm13.9,14.29c-.11,0-.19.09-.19.19v3.84c0,.11.09.19.19.19s.19-.09.19-.19v-3.84c0-.11-.09-.19-.19-.19Zm-7.17,170.86h-3.84c-.11,0-.19.09-.19.19s.09.19.19.19h3.84c.11,0,.19-.09.19-.19s-.09-.19-.19-.19Zm7.17-132.44c-.11,0-.19.09-.19.19v3.84c0,.11.09.19.19.19s.19-.09.19-.19v-3.84c0-.11-.09-.19-.19-.19Zm0-30.73c-.11,0-.19.09-.19.19v3.84c0,.11.09.19.19.19s.19-.09.19-.19v-3.84c0-.11-.09-.19-.19-.19Zm0,23.05c-.11,0-.19.09-.19.19v3.84c0,.11.09.19.19.19s.19-.09.19-.19v-3.84c0-.11-.09-.19-.19-.19Zm0,15.37c-.11,0-.19.09-.19.19v3.84c0,.11.09.19.19.19s.19-.09.19-.19v-3.84c0-.11-.09-.19-.19-.19Zm0-30.73c-.11,0-.19.09-.19.19v3.84c0,.11.09.19.19.19s.19-.09.19-.19v-3.84c0-.11-.09-.19-.19-.19Zm0,7.68c-.11,0-.19.09-.19.19v3.84c0,.11.09.19.19.19s.19-.09.19-.19v-3.84c0-.11-.09-.19-.19-.19Zm-328.93-37.35c-1.27-.03-2.55-.15-3.8-.35-.1-.02-.2.05-.22.16-.02.1.05.2.16.22,1.26.21,2.56.33,3.85.36h0c.1,0,.19-.08.19-.19,0-.11-.08-.19-.19-.2Zm29.78,185.16h-3.84c-.11,0-.19.09-.19.19s.09.19.19.19h3.84c.11,0,.19-.09.19-.19s-.09-.19-.19-.19Zm.95-185.15h-3.84c-.11,0-.19.09-.19.19s.09.19.19.19h3.84c.11,0,.19-.09.19-.19s-.09-.19-.19-.19Zm6.74,185.15h-3.84c-.11,0-.19.09-.19.19s.09.19.19.19h3.84c.11,0,.19-.09.19-.19s-.09-.19-.19-.19Zm-22.1-185.15h-3.84c-.11,0-.19.09-.19.19s.09.19.19.19h3.84c.11,0,.19-.09.19-.19s-.09-.19-.19-.19Zm23.05,0h-3.84c-.11,0-.19.09-.19.19s.09.19.19.19h3.84c.11,0,.19-.09.19-.19s-.09-.19-.19-.19Zm-15.37,0h-3.84c-.11,0-.19.09-.19.19s.09.19.19.19h3.84c.11,0,.19-.09.19-.19s-.09-.19-.19-.19Zm-.95,185.15h-3.84c-.11,0-.19.09-.19.19s.09.19.19.19h3.84c.11,0,.19-.09.19-.19s-.09-.19-.19-.19Zm31.68-185.15h-3.84c-.11,0-.19.09-.19.19s.09.19.19.19h3.84c.11,0,.19-.09.19-.19s-.09-.19-.19-.19Zm7.68,0h-3.84c-.11,0-.19.09-.19.19s.09.19.19.19h3.84c.11,0,.19-.09.19-.19s-.09-.19-.19-.19Zm-16.32,185.15h-3.84c-.11,0-.19.09-.19.19s.09.19.19.19h3.84c.11,0,.19-.09.19-.19s-.09-.19-.19-.19Zm23.05,0h-3.84c-.11,0-.19.09-.19.19s.09.19.19.19h3.84c.11,0,.19-.09.19-.19s-.09-.19-.19-.19Zm-7.68,0h-3.84c-.11,0-.19.09-.19.19s.09.19.19.19h3.84c.11,0,.19-.09.19-.19s-.09-.19-.19-.19Zm-14.42-185.15h-3.84c-.11,0-.19.09-.19.19s.09.19.19.19h3.84c.11,0,.19-.09.19-.19s-.09-.19-.19-.19Zm6.74,185.15h-3.84c-.11,0-.19.09-.19.19s.09.19.19.19h3.84c.11,0,.19-.09.19-.19s-.09-.19-.19-.19Zm-38.42,0h-3.84c-.11,0-.19.09-.19.19s.09.19.19.19h3.84c.11,0,.19-.09.19-.19s-.09-.19-.19-.19Zm-6.74-185.15h-3.84c-.11,0-.19.09-.19.19s.09.19.19.19h3.84c.11,0,.19-.09.19-.19s-.09-.19-.19-.19Zm-33.41,164.66c-.03-.1-.13-.16-.23-.14-.1.03-.16.13-.14.23.32,1.24.74,2.47,1.24,3.66.03.07.1.12.18.12.02,0,.05,0,.08-.02.1-.04.14-.15.1-.25-.49-1.17-.91-2.39-1.23-3.61Zm-.81-187.75s.02.01.04.01c0,0,.02,0,.03,0,.11-.02.18-.11.16-.22-.12-.83-.19-1.67-.23-2.51v2.72Zm210.95,23.09h-3.84c-.11,0-.19.09-.19.19s.09.19.19.19h3.84c.11,0,.19-.09.19-.19s-.09-.19-.19-.19Zm-207.19,171.66c-.05-.09-.17-.12-.26-.07-.09.05-.12.17-.07.26.66,1.1,1.4,2.17,2.2,3.18.04.05.09.07.15.07.04,0,.08-.01.12-.04.08-.07.1-.19.03-.27-.79-1-1.52-2.05-2.17-3.13Zm.49-184.35c-.06-.09-.18-.11-.27-.06-.09.06-.11.18-.06.27.69,1.07,1.47,2.11,2.31,3.1.04.04.09.07.15.07.04,0,.09-.02.12-.05.08-.07.09-.19.02-.27-.83-.97-1.6-2-2.28-3.06Zm-3.2-6.9c-.03-.1-.13-.16-.24-.13-.1.03-.16.14-.13.24.37,1.23.83,2.44,1.38,3.61.03.07.1.11.17.11.03,0,.05,0,.08-.02.1-.05.14-.16.09-.26-.54-1.15-.99-2.35-1.36-3.56Zm24.55,204.68c-1.27-.07-2.54-.23-3.78-.48-.11-.02-.21.05-.23.15-.02.1.05.2.15.23,1.26.25,2.55.42,3.83.49h.01c.1,0,.19-.08.19-.18,0-.11-.08-.2-.18-.2Zm-16.42-191.99c-.08-.07-.2-.06-.27.01-.07.08-.06.2.01.27.96.86,1.99,1.66,3.05,2.38.03.02.07.03.11.03.06,0,.12-.03.16-.08.06-.09.04-.21-.05-.27-1.05-.7-2.06-1.49-3-2.34Zm346.29,13.5c-.11,0-.19.09-.19.19v3.84c0,.11.09.19.19.19s.19-.09.19-.19v-3.84c0-.11-.09-.19-.19-.19Zm-346.98,171.01c-.08-.07-.2-.07-.27,0-.07.08-.07.2,0,.27.93.9,1.93,1.73,2.96,2.48.03.02.07.04.11.04.06,0,.12-.03.16-.08.06-.09.04-.21-.04-.27-1.02-.74-2-1.56-2.92-2.45Zm24.78,7.53h-3.84c-.11,0-.19.09-.19.19s.09.19.19.19h3.84c.11,0,.19-.09.19-.19s-.09-.19-.19-.19Zm62.42-185.15h-3.84c-.11,0-.19.09-.19.19s.09.19.19.19h3.84c.11,0,.19-.09.19-.19s-.09-.19-.19-.19Zm-76.65-1.24c-1.21-.38-2.4-.85-3.54-1.4-.09-.05-.21,0-.26.09-.05.1,0,.21.09.26,1.16.56,2.37,1.04,3.59,1.42.02,0,.04,0,.06,0,.08,0,.16-.05.18-.13.03-.1-.02-.21-.13-.24Zm-.89,184.85c-1.19-.42-2.37-.94-3.49-1.53-.09-.05-.21-.01-.26.08-.05.09-.01.21.08.26,1.14.6,2.33,1.12,3.54,1.55.02,0,.04.01.06.01.08,0,.15-.05.18-.13.04-.1-.02-.21-.12-.24Zm-18.15-22.52c.07-.03.12-.1.11-.18-.05-.46-.09-.93-.11-1.4v1.58Zm172.53-161.09h-3.84c-.11,0-.19.09-.19.19s.09.19.19.19h3.84c.11,0,.19-.09.19-.19s-.09-.19-.19-.19Zm14.42,185.15h-3.84c-.11,0-.19.09-.19.19s.09.19.19.19h3.84c.11,0,.19-.09.19-.19s-.09-.19-.19-.19Zm-6.74-185.15h-3.84c-.11,0-.19.09-.19.19s.09.19.19.19h3.84c.11,0,.19-.09.19-.19s-.09-.19-.19-.19Zm-.95,185.15h-3.84c-.11,0-.19.09-.19.19s.09.19.19.19h3.84c.11,0,.19-.09.19-.19s-.09-.19-.19-.19Zm-15.37,0h-3.84c-.11,0-.19.09-.19.19s.09.19.19.19h3.84c.11,0,.19-.09.19-.19s-.09-.19-.19-.19Zm-6.74-185.15h-3.84c-.11,0-.19.09-.19.19s.09.19.19.19h3.84c.11,0,.19-.09.19-.19s-.09-.19-.19-.19Zm14.42,185.15h-3.84c-.11,0-.19.09-.19.19s.09.19.19.19h3.84c.11,0,.19-.09.19-.19s-.09-.19-.19-.19Zm-6.74-185.15h-3.84c-.11,0-.19.09-.19.19s.09.19.19.19h3.84c.11,0,.19-.09.19-.19s-.09-.19-.19-.19Zm38.42,0h-3.84c-.11,0-.19.09-.19.19s.09.19.19.19h3.84c.11,0,.19-.09.19-.19s-.09-.19-.19-.19Zm6.74,185.15h-3.84c-.11,0-.19.09-.19.19s.09.19.19.19h3.84c.11,0,.19-.09.19-.19s-.09-.19-.19-.19Zm-7.68,0h-3.84c-.11,0-.19.09-.19.19s.09.19.19.19h3.84c.11,0,.19-.09.19-.19s-.09-.19-.19-.19Zm-14.42-185.15h-3.84c-.11,0-.19.09-.19.19s.09.19.19.19h3.84c.11,0,.19-.09.19-.19s-.09-.19-.19-.19Zm-85.47,185.15h-3.84c-.11,0-.19.09-.19.19s.09.19.19.19h3.84c.11,0,.19-.09.19-.19s-.09-.19-.19-.19Zm92.2,0h-3.84c-.11,0-.19.09-.19.19s.09.19.19.19h3.84c.11,0,.19-.09.19-.19s-.09-.19-.19-.19Zm.95-185.15h-3.84c-.11,0-.19.09-.19.19s.09.19.19.19h3.84c.11,0,.19-.09.19-.19s-.09-.19-.19-.19Zm-76.84,0h-3.84c-.11,0-.19.09-.19.19s.09.19.19.19h3.84c.11,0,.19-.09.19-.19s-.09-.19-.19-.19Zm6.74,185.15h-3.84c-.11,0-.19.09-.19.19s.09.19.19.19h3.84c.11,0,.19-.09.19-.19s-.09-.19-.19-.19Zm-7.68,0h-3.84c-.11,0-.19.09-.19.19s.09.19.19.19h3.84c.11,0,.19-.09.19-.19s-.09-.19-.19-.19Zm38.42,0h-3.84c-.11,0-.19.09-.19.19s.09.19.19.19h3.84c.11,0,.19-.09.19-.19s-.09-.19-.19-.19Zm-29.79-185.15h-3.84c-.11,0-.19.09-.19.19s.09.19.19.19h3.84c.11,0,.19-.09.19-.19s-.09-.19-.19-.19Zm-16.32,185.15h-3.84c-.11,0-.19.09-.19.19s.09.19.19.19h3.84c.11,0,.19-.09.19-.19s-.09-.19-.19-.19Zm.95-185.15h-3.84c-.11,0-.19.09-.19.19s.09.19.19.19h3.84c.11,0,.19-.09.19-.19s-.09-.19-.19-.19Zm-7.68,0h-3.84c-.11,0-.19.09-.19.19s.09.19.19.19h3.84c.11,0,.19-.09.19-.19s-.09-.19-.19-.19Zm38.42,0h-3.84c-.11,0-.19.09-.19.19s.09.19.19.19h3.84c.11,0,.19-.09.19-.19s-.09-.19-.19-.19Zm6.74,185.15h-3.84c-.11,0-.19.09-.19.19s.09.19.19.19h3.84c.11,0,.19-.09.19-.19s-.09-.19-.19-.19Zm.95-185.15h-3.84c-.11,0-.19.09-.19.19s.09.19.19.19h3.84c.11,0,.19-.09.19-.19s-.09-.19-.19-.19Zm-15.37,0h-3.84c-.11,0-.19.09-.19.19s.09.19.19.19h3.84c.11,0,.19-.09.19-.19s-.09-.19-.19-.19Zm6.74,185.15h-3.84c-.11,0-.19.09-.19.19s.09.19.19.19h3.84c.11,0,.19-.09.19-.19s-.09-.19-.19-.19Zm-7.68,0h-3.84c-.11,0-.19.09-.19.19s.09.19.19.19h3.84c.11,0,.19-.09.19-.19s-.09-.19-.19-.19Z"></path>
  <path fill="#ff4a0b" d="m406.51,578.23c-9.73,0-18.02,7.55-18.39,17.27-.39,10.22,7.82,18.66,17.95,18.66h67.68v-35.93h-67.24Z"></path>
  <path fill="#00416d" d="m482.99,811.91c-3.14,0-5.69-2.55-5.69-5.69v-14.56c-4.24-.59-8.32-1.45-12.15-2.56-.16-.04-.34-.1-.51-.16-.06-.02-.11-.04-.17-.06-.03,0-.12-.03-.15-.04-.57-.18-1.09-.36-1.63-.54,0,0-.16-.05-.21-.07l-.87-.29c-6.47-2.19-12.88-6.09-13.15-6.25-3.06-1.88-4.29-5.91-2.82-9.18l5.51-12.23c1.08-2.35,3.29-3.8,5.8-3.8,1.18,0,2.35.33,3.39.96.06.04,5.61,3.4,10.52,5.16.27.1.53.19.78.29.39.15.79.3,1.2.43l.08.02c.15.04.3.08.46.13,5.68,1.79,11.42,2.69,17.03,2.69,6.23,0,10.77-.86,13.51-2.56,2.94-1.83,3.32-3.77,3.32-5.26s-.53-2.59-1.71-3.59c-1.59-1.35-3.73-2.47-6.36-3.34-2.92-.96-6.99-2.05-12.09-3.23-8.05-1.9-14.81-3.86-20.11-5.81-5.63-2.1-10.53-5.52-14.56-10.15-4.2-4.82-6.33-11.25-6.33-19.11,0-6.82,1.87-13.06,5.55-18.53,3.64-5.48,9.17-9.87,16.43-13.04,2.82-1.23,5.93-2.22,9.27-2.96v-14.56c0-1.51.59-2.94,1.67-4.02,1.08-1.08,2.5-1.67,4.02-1.67h16.91c1.52,0,2.95.59,4.02,1.67,1.08,1.08,1.67,2.5,1.67,4.02v13.71c3.02.41,5.96.97,8.78,1.68.39.1.75.21,1.1.31.24.07.48.14.72.21.29.08,1.24.35,1.46.41.18.03.35.07.52.12l.86.27c4.85,1.57,9.81,4.19,10.01,4.3,3.2,1.72,4.62,5.69,3.26,9.03l-4.99,12.29c-1.01,2.49-3.37,4.09-6.02,4.09-1.03,0-2.07-.25-3-.73-.03-.02-4.74-2.38-8.4-3.62-.82-.27-1.68-.55-2.52-.8-4.56-1.3-9.17-1.96-13.68-1.96-5.98,0-10.54.94-13.17,2.72-2.3,1.56-3.38,3.41-3.38,5.85,0,1.5.41,3.41,3.64,4.92,3.54,1.66,9.09,3.32,16.49,4.94,8.13,1.93,14.89,3.9,20.15,5.85,5.6,2.08,10.49,5.43,14.52,9.95,4.23,4.77,6.37,11.15,6.37,18.99,0,6.67-1.89,12.85-5.62,18.39-3.74,5.52-9.33,9.9-16.61,13.05-3.1,1.34-6.63,2.41-10.51,3.18v15.06c0,3.14-2.56,5.69-5.69,5.69h-16.91Z"></path>
  <path fill="#002356" d="m482.99,811.91c-3.14,0-5.69-2.55-5.69-5.69v-14.56c-4.24-.59-8.32-1.45-12.15-2.56-.16-.04-.34-.1-.51-.16-.06-.02-.11-.04-.17-.06-.03,0-.12-.03-.15-.04-.57-.18-1.09-.36-1.63-.54,0,0-.16-.05-.21-.07l-.87-.29c-6.47-2.19-12.88-6.09-13.15-6.25-3.06-1.88-4.29-5.91-2.82-9.18l5.51-12.23c1.08-2.35,3.29-3.8,5.8-3.8,1.18,0,2.35.33,3.39.96.06.04,5.61,3.4,10.52,5.16.27.1.53.19.78.29.39.15.79.3,1.2.43l.08.02c.15.04.3.08.46.13,5.68,1.79,11.42,2.69,17.03,2.69,6.23,0,10.77-.86,13.51-2.56,2.94-1.83,3.32-3.77,3.32-5.26s-.53-2.59-1.71-3.59c-1.59-1.35-3.73-2.47-6.36-3.34-2.92-.96-6.99-2.05-12.09-3.23-8.05-1.9-14.81-3.86-20.11-5.81-5.63-2.1-10.53-5.52-14.56-10.15-4.2-4.82-6.33-11.25-6.33-19.11,0-6.82,1.87-13.06,5.55-18.53,3.64-5.48,9.17-9.87,16.43-13.04,2.82-1.23,5.93-2.22,9.27-2.96v-14.56c0-1.51.59-2.94,1.67-4.02,1.08-1.08,2.5-1.67,4.02-1.67h16.91c1.52,0,2.95.59,4.02,1.67,1.08,1.08,1.67,2.5,1.67,4.02v13.71c3.02.41,5.96.97,8.78,1.68.39.1.75.21,1.1.31.24.07.48.14.72.21.29.08,1.24.35,1.46.41.18.03.35.07.52.12l.86.27c4.85,1.57,9.81,4.19,10.01,4.3,3.2,1.72,4.62,5.69,3.26,9.03l-4.99,12.29c-1.01,2.49-3.37,4.09-6.02,4.09-1.03,0-2.07-.25-3-.73-.03-.02-4.74-2.38-8.4-3.62-.82-.27-1.68-.55-2.52-.8-4.56-1.3-9.17-1.96-13.68-1.96-5.98,0-10.54.94-13.17,2.72-2.3,1.56-3.38,3.41-3.38,5.85,0,1.5.41,3.41,3.64,4.92,3.54,1.66,9.09,3.32,16.49,4.94,8.13,1.93,14.89,3.9,20.15,5.85,5.6,2.08,10.49,5.43,14.52,9.95,4.23,4.77,6.37,11.15,6.37,18.99,0,6.67-1.89,12.85-5.62,18.39-3.74,5.52-9.33,9.9-16.61,13.05-3.1,1.34-6.63,2.41-10.51,3.18v15.06c0,3.14-2.56,5.69-5.69,5.69h-16.91Z"></path>
  <path fill="url(#a)" d="m482.98,808.64c-1.12,0-2.09-.76-2.36-1.86-.02-.1.04-.21.14-.23.1-.03.21.04.23.14.22.91,1.05,1.57,1.98,1.57h.86c.11,0,.19.09.19.19s-.09.19-.19.19h-.86Zm16.23,0h-3.84c-.11,0-.19-.09-.19-.19s.09-.19.19-.19h3.84c.11,0,.19.09.19.19s-.09.19-.19.19Zm-7.68,0h-3.84c-.11,0-.19-.09-.19-.19s.09-.19.19-.19h3.84c.11,0,.19.09.19.19s-.09.19-.19.19Zm10.58-1.88s-.02,0-.03,0c-.11-.02-.18-.12-.16-.22.02-.11.03-.21.03-.32v-3.49c0-.11.09-.19.19-.19s.19.09.19.19v3.49c0,.13-.01.26-.03.38-.02.09-.1.16-.19.16Zm-21.35-3.67c-.11,0-.19-.09-.19-.19v-3.84c0-.11.09-.19.19-.19s.19.09.19.19v3.84c0,.11-.09.19-.19.19Zm21.38-4.01c-.11,0-.19-.09-.19-.19v-3.84c0-.11.09-.19.19-.19s.19.09.19.19v3.84c0,.11-.09.19-.19.19Zm-21.38-3.67c-.11,0-.19-.09-.19-.19v-3.84c0-.11.09-.19.19-.19s.19.09.19.19v3.84c0,.11-.09.19-.19.19Zm21.38-4.01c-.11,0-.19-.09-.19-.19v-1.99c0-.64.47-1.19,1.11-1.3l.26-.05c.11-.02.2.05.22.16.02.11-.05.2-.16.22l-.26.05c-.46.08-.79.46-.79.92v1.99c0,.11-.09.19-.19.19Zm-22.81-2.77s-.02,0-.02,0c-1.29-.16-2.57-.34-3.81-.55-.1-.02-.18-.12-.16-.22.02-.1.12-.17.22-.16,1.24.2,2.51.39,3.79.54.11.01.18.11.17.21-.01.1-.09.17-.19.17Zm27.78-1.14c-.09,0-.17-.06-.19-.15-.02-.1.04-.21.14-.23,1.28-.3,2.52-.65,3.69-1.02.1-.03.21.02.24.12.03.1-.02.21-.12.24-1.18.38-2.43.72-3.72,1.03-.02,0-.03,0-.04,0Zm-35.36-.11s-.03,0-.04,0c-1.27-.27-2.53-.56-3.75-.88-.1-.03-.16-.13-.14-.23.03-.1.13-.16.23-.14,1.21.32,2.47.61,3.73.88.1.02.17.12.15.23-.02.09-.1.15-.19.15Zm-7.42-1.98s-.04,0-.06-.01l-.72-.25s-.03,0-.04,0l-.87-.29c-.65-.22-1.32-.46-1.99-.73-.1-.04-.15-.15-.11-.25.04-.1.15-.15.25-.11.67.26,1.34.51,1.98.72l.85.28s.04,0,.05,0l.74.26c.1.03.15.14.12.24-.03.08-.1.13-.18.13Zm50.09-.26c-.08,0-.15-.04-.18-.12-.04-.1,0-.21.1-.25l.32-.14c1.09-.47,2.14-.97,3.14-1.5.09-.05.21-.01.26.08.05.09.01.21-.08.26-1,.53-2.07,1.04-3.17,1.51l-.32.14s-.05.02-.08.02Zm-57.24-2.53s-.05,0-.08-.02c-1.13-.53-2.29-1.11-3.45-1.72-.09-.05-.13-.17-.08-.26.05-.09.17-.13.26-.08,1.16.61,2.31,1.19,3.43,1.71.1.05.14.16.09.26-.03.07-.1.11-.17.11Zm64.02-1.05c-.06,0-.12-.03-.16-.09-.06-.09-.03-.21.05-.27,1.08-.71,2.12-1.47,3.07-2.27.08-.07.2-.06.27.03.07.08.06.2-.03.27-.97.8-2.01,1.57-3.11,2.29-.03.02-.07.03-.11.03Zm-70.82-2.54s-.07,0-.1-.03l-.13-.08c-1.07-.66-1.79-1.9-1.87-3.23,0-.11.07-.2.18-.2.1,0,.2.08.2.18.07,1.21.72,2.33,1.69,2.92l.13.08c.09.05.12.17.07.26-.04.06-.1.09-.17.09Zm76.71-2.37s-.09-.02-.13-.05c-.08-.07-.08-.19,0-.27.87-.93,1.69-1.93,2.41-2.95.06-.09.18-.11.27-.05.09.06.11.18.05.27-.74,1.04-1.56,2.05-2.45,2.99-.04.04-.09.06-.14.06Zm-77.46-4.4s-.05,0-.08-.02c-.1-.04-.14-.16-.1-.25l1.58-3.5c.04-.1.16-.14.25-.1.1.04.14.16.1.25l-1.58,3.5c-.03.07-.1.11-.17.11Zm81.9-1.84s-.06,0-.09-.02c-.09-.05-.13-.17-.08-.26.6-1.13,1.12-2.3,1.56-3.48.04-.1.15-.15.25-.11.1.04.15.15.11.25-.44,1.2-.97,2.38-1.58,3.53-.03.07-.1.1-.17.1Zm-41.16-.58h0c-1.27,0-2.57-.05-3.85-.13-.11,0-.19-.1-.18-.2s.1-.18.2-.18c1.27.09,2.56.13,3.83.13.11,0,.19.09.19.19s-.09.19-.19.19Zm3.84-.12c-.1,0-.19-.08-.19-.18,0-.11.07-.2.18-.2,1.35-.09,2.63-.22,3.8-.41.11-.01.2.06.22.16.02.1-.06.2-.16.22-1.19.18-2.48.32-3.84.41,0,0,0,0-.01,0Zm-11.5-.4s-.02,0-.03,0c-1.27-.17-2.55-.39-3.8-.64-.1-.02-.17-.12-.15-.23.02-.1.13-.17.23-.15,1.24.25,2.52.46,3.77.63.11.01.18.11.17.22-.01.1-.1.17-.19.17Zm19.06-.84c-.08,0-.16-.05-.18-.14-.03-.1.03-.21.13-.24,1.31-.4,2.49-.89,3.5-1.46.09-.05.21-.02.26.07.05.09.02.21-.07.26-1.03.59-2.24,1.09-3.58,1.49-.02,0-.04,0-.06,0Zm-26.59-.67s-.03,0-.05,0c-.95-.25-1.92-.53-2.87-.83-.09-.03-.19-.05-.28-.08-.09-.02-.18-.05-.28-.08l-.27-.09c-.1-.03-.15-.14-.12-.24.03-.1.14-.15.24-.12l.26.09c.09.03.17.05.26.07.1.03.2.05.3.08.95.3,1.91.57,2.85.83.1.03.16.13.14.23-.02.09-.1.14-.19.14Zm-7.28-2.42s-.05,0-.07-.01c-1.09-.45-2.28-.99-3.51-1.59-.1-.05-.13-.16-.09-.26.05-.09.16-.13.26-.09,1.23.6,2.4,1.13,3.49,1.58.1.04.15.15.11.25-.03.07-.1.12-.18.12Zm-15.11-.13s-.05,0-.08-.02c-.1-.04-.14-.16-.1-.25l1.51-3.34c.02-.06.05-.11.08-.17.05-.09.17-.13.26-.08.09.05.13.17.08.26-.03.05-.05.1-.07.15l-1.51,3.34c-.03.07-.1.11-.17.11Zm55.54-.61s-.09-.02-.13-.05c-.08-.07-.08-.19-.01-.27.88-.96,1.52-2.04,1.89-3.21.03-.1.14-.16.24-.12.1.03.16.14.12.24-.39,1.22-1.06,2.35-1.98,3.35-.04.04-.09.06-.14.06Zm25.87-1.41s-.03,0-.04,0c-.1-.02-.17-.13-.15-.23.27-1.23.47-2.5.58-3.77,0-.11.09-.19.21-.17.11,0,.18.1.17.21-.11,1.29-.31,2.57-.58,3.82-.02.09-.1.15-.19.15Zm-73.21-1.21s-.06,0-.09-.02c-1.48-.81-2.45-1.41-2.46-1.41-.28-.17-.58-.29-.88-.36-.1-.02-.17-.13-.14-.23.03-.1.13-.17.23-.14.34.08.68.22.99.41,0,0,.97.59,2.45,1.4.09.05.13.17.08.26-.03.06-.1.1-.17.1Zm49.64-4.45c-.1,0-.18-.07-.19-.17-.14-1.27-.58-2.44-1.3-3.47-.06-.09-.04-.21.05-.27.09-.06.21-.04.27.05.75,1.08,1.21,2.31,1.36,3.65.01.11-.06.2-.17.21,0,0-.01,0-.02,0Zm24.24-1.97c-.1,0-.19-.08-.19-.19-.04-1.31-.15-2.59-.33-3.8-.02-.11.06-.2.16-.22.11-.02.2.06.22.16.18,1.22.29,2.52.33,3.85,0,.11-.08.2-.19.2h0Zm-28.35-4.22s-.08-.01-.11-.03c-.98-.69-2.09-1.32-3.31-1.87-.1-.04-.14-.16-.09-.26.04-.1.16-.14.26-.09,1.24.57,2.37,1.21,3.37,1.91.09.06.11.18.05.27-.04.05-.1.08-.16.08Zm-6.93-3.24s-.04,0-.06,0c-1.09-.35-2.32-.71-3.68-1.08-.1-.03-.16-.13-.13-.24.03-.1.13-.16.24-.13,1.36.38,2.6.74,3.69,1.09.1.03.16.14.12.24-.03.08-.1.13-.18.13Zm34.14-.11c-.08,0-.16-.05-.18-.14-.37-1.25-.83-2.44-1.38-3.54-.05-.1,0-.21.09-.26.1-.05.21,0,.26.09.56,1.13,1.03,2.34,1.41,3.61.03.1-.03.21-.13.24-.02,0-.04,0-.05,0Zm-41.54-1.95s-.03,0-.05,0c-1.17-.29-2.42-.6-3.73-.9-.1-.02-.17-.13-.14-.23.02-.1.13-.17.23-.14,1.32.31,2.56.61,3.74.91.1.03.17.13.14.23-.02.09-.1.14-.19.14Zm-7.47-1.8s-.03,0-.05,0c-1.28-.32-2.52-.64-3.72-.96-.1-.03-.16-.13-.14-.23.03-.1.14-.16.23-.14,1.2.32,2.44.64,3.72.96.1.03.17.13.14.23-.02.09-.1.15-.19.15Zm-7.42-1.98s-.04,0-.05,0c-1.29-.37-2.53-.74-3.68-1.1-.1-.03-.16-.14-.13-.24.03-.1.14-.16.24-.13,1.16.36,2.39.73,3.68,1.1.1.03.16.14.13.24-.02.08-.1.14-.18.14Zm53.02-1.1c-.06,0-.11-.03-.15-.08-.29-.38-.6-.75-.91-1.11-.86-.96-1.76-1.87-2.69-2.71-.08-.07-.09-.19-.02-.27.07-.08.19-.08.27-.02.94.85,1.86,1.77,2.72,2.74.32.36.63.74.93,1.13.06.08.05.2-.04.27-.03.03-.08.04-.12.04Zm-60.35-1.2s-.04,0-.06-.01c-.63-.22-1.23-.43-1.82-.65-.6-.22-1.2-.47-1.78-.72-.1-.04-.14-.16-.1-.25.04-.1.16-.14.25-.1.58.25,1.17.49,1.76.72.58.22,1.19.43,1.81.65.1.03.15.14.12.24-.03.08-.1.13-.18.13Zm-7-3.13s-.07,0-.1-.03c-1.1-.66-2.18-1.39-3.19-2.17-.08-.07-.1-.19-.03-.27.06-.08.19-.1.27-.03,1,.78,2.07,1.5,3.15,2.15.09.05.12.17.07.26-.04.06-.1.09-.17.09Zm60.72-1.9s-.08-.01-.11-.04c-1.04-.73-2.13-1.4-3.25-2.01-.09-.05-.13-.17-.08-.26s.17-.13.26-.08c1.13.61,2.24,1.29,3.29,2.03.09.06.11.18.05.27-.04.05-.1.08-.16.08Zm-66.78-2.78s-.1-.02-.13-.05c-.66-.64-1.3-1.32-1.91-2.03-.24-.27-.47-.55-.69-.83-.07-.08-.05-.2.03-.27.08-.06.2-.05.27.03.22.28.44.55.68.82.61.7,1.24,1.37,1.89,2.01.08.07.08.2,0,.27-.04.04-.09.06-.14.06Zm60.04-.85s-.05,0-.07-.01c-.23-.09-.46-.18-.68-.26-.91-.34-1.9-.69-2.92-1.03-.1-.03-.15-.14-.12-.24.04-.1.14-.15.24-.12,1.03.35,2.01.7,2.93,1.04.23.09.46.17.69.27.1.04.15.15.11.25-.03.08-.1.12-.18.12Zm-7.27-2.47s-.04,0-.06,0c-1.18-.36-2.42-.72-3.68-1.08-.1-.03-.16-.13-.13-.24.03-.1.13-.16.24-.13,1.27.36,2.51.72,3.69,1.08.1.03.16.14.13.24-.03.08-.1.14-.18.14Zm-7.39-2.08s-.03,0-.05,0c-1.2-.31-2.44-.63-3.72-.94-.1-.03-.17-.13-.14-.23.03-.1.13-.17.23-.14,1.28.31,2.52.63,3.73.94.1.03.16.13.14.23-.02.09-.1.14-.19.14Zm-50.01-.67c-.07,0-.14-.04-.17-.1-.57-1.12-1.07-2.32-1.46-3.58-.03-.1.02-.21.13-.24.11-.03.21.02.24.13.39,1.24.87,2.42,1.44,3.52.05.09.01.21-.08.26-.03.01-.06.02-.09.02Zm42.55-1.15s-.03,0-.04,0c-1.3-.3-2.55-.6-3.74-.9-.1-.03-.17-.13-.14-.23.03-.1.13-.16.23-.14,1.18.3,2.44.6,3.73.9.1.02.17.13.14.23-.02.09-.1.15-.19.15Zm-7.44-1.91s-.04,0-.05,0c-1.32-.38-2.55-.77-3.67-1.16-.1-.03-.15-.14-.12-.24.03-.1.15-.15.24-.12,1.11.38,2.34.77,3.66,1.15.1.03.16.14.13.24-.02.08-.1.14-.18.14Zm-7.25-2.53s-.05,0-.08-.02c-.26-.12-.52-.23-.77-.35-.99-.46-1.86-.99-2.59-1.58-.08-.07-.1-.19-.03-.27.07-.08.19-.1.27-.03.71.57,1.56,1.09,2.52,1.53.25.11.5.23.76.34.1.04.14.16.1.25-.03.07-.1.11-.18.11Zm-30.18-1.7c-.09,0-.17-.07-.19-.16-.2-1.22-.33-2.51-.38-3.84,0-.11.08-.2.18-.2.08,0,.2.08.2.18.06,1.31.18,2.59.38,3.8.02.11-.05.2-.16.22-.01,0-.02,0-.03,0Zm24.49-3.19c-.07,0-.14-.04-.17-.11-.49-1.07-.74-2.28-.74-3.59v-.23c0-.11.09-.19.19-.19h0c.11,0,.19.09.19.2v.22c0,1.25.23,2.41.7,3.43.04.1,0,.21-.1.25-.03.01-.05.02-.08.02Zm-24.84-4.47s0,0-.01,0c-.11,0-.19-.1-.18-.2.09-1.3.25-2.59.49-3.83.02-.1.12-.18.23-.15.1.02.17.12.15.23-.24,1.22-.4,2.5-.48,3.78,0,.1-.09.18-.19.18Zm24.89-3s-.05,0-.08-.02c-.1-.04-.14-.15-.1-.25.5-1.16,1.24-2.24,2.2-3.21.08-.08.2-.08.27,0s.08.2,0,.27c-.93.93-1.64,1.97-2.12,3.09-.03.07-.1.12-.18.12Zm45.96-1.07s-.04,0-.05,0c-.2-.06-.4-.14-.6-.24-.01,0-1.23-.62-2.92-1.39-.1-.04-.14-.16-.09-.26.04-.1.16-.14.26-.09,1.69.78,2.92,1.39,2.93,1.4.17.09.35.16.53.21.1.03.16.14.13.24-.02.08-.1.14-.18.14Zm3.37-1.22s-.07-.01-.11-.03c-.09-.06-.11-.18-.05-.27.12-.17.21-.36.29-.56l1.19-2.94c.04-.1.15-.15.25-.11.1.04.15.15.11.25l-1.19,2.94c-.09.22-.2.43-.33.62-.04.06-.1.09-.16.09Zm-10.39-1.93s-.05,0-.07-.01c-.87-.35-1.68-.65-2.4-.9-.4-.13-.8-.27-1.21-.39-.1-.03-.16-.14-.12-.24s.14-.15.24-.12c.41.13.81.26,1.21.4.73.25,1.54.55,2.42.9.1.04.15.15.11.25-.03.08-.1.12-.18.12Zm-62.37-.3s-.04,0-.06,0c-.1-.03-.15-.14-.12-.24.41-1.22.91-2.42,1.48-3.57.05-.09.16-.14.26-.09.09.05.13.16.09.26-.56,1.14-1.05,2.32-1.46,3.52-.03.08-.1.13-.18.13Zm28.67-.91c-.07,0-.13-.04-.17-.1-.05-.09-.02-.21.08-.26,1.05-.57,2.26-1.05,3.6-1.43.1-.03.21.03.24.13.03.1-.03.21-.13.24-1.31.38-2.5.85-3.52,1.4-.03.02-.06.02-.09.02Zm26.39-1.13s-.03,0-.05,0c-1.24-.3-2.5-.56-3.75-.77-.1-.02-.17-.12-.16-.22.02-.1.11-.18.22-.16,1.25.21,2.52.47,3.77.78.1.03.17.13.14.23-.02.09-.1.15-.19.15Zm-19.07-1.08c-.09,0-.18-.07-.19-.16-.02-.11.06-.2.16-.22,1.19-.17,2.49-.29,3.84-.36.11,0,.2.08.2.18s-.08.2-.18.2c-1.34.07-2.62.19-3.81.36,0,0-.02,0-.03,0Zm11.5-.2s-.01,0-.02,0c-1.26-.12-2.55-.2-3.82-.22-.11,0-.19-.09-.19-.2,0-.11.09-.19.19-.19h0c1.28.03,2.58.1,3.85.22.11.01.18.1.17.21,0,.1-.09.17-.19.17Zm28.23-1.55s-.05,0-.07-.01c-.1-.04-.15-.15-.11-.25l1.45-3.56c.04-.1.15-.15.25-.11.1.04.15.15.11.25l-1.45,3.56c-.03.08-.1.12-.18.12Zm-72.32-2s-.07-.01-.11-.03c-.09-.06-.11-.18-.05-.27l.03-.05c.7-1.05,1.48-2.06,2.32-3.02.07-.08.19-.09.27-.02.08.07.09.19.02.27-.83.94-1.6,1.94-2.29,2.97l-.03.05c-.04.06-.1.09-.16.09Zm74.93-5.19c-.1,0-.19-.08-.19-.19-.02-1.26-.68-2.42-1.72-3.04-.09-.05-.12-.17-.07-.26.05-.09.17-.12.26-.07,1.15.69,1.88,1.98,1.91,3.37,0,.11-.08.19-.19.2h0Zm-69.86-.55c-.05,0-.11-.02-.14-.07-.07-.08-.06-.2.02-.27.94-.82,1.97-1.62,3.06-2.36.09-.06.21-.04.27.05.06.09.04.21-.05.27-1.07.73-2.09,1.52-3.02,2.33-.04.03-.08.05-.13.05Zm6.32-4.35c-.07,0-.13-.04-.17-.1-.05-.09-.02-.21.08-.26,1.09-.6,2.25-1.17,3.46-1.7.09-.04.21,0,.25.1.04.1,0,.21-.1.25-1.2.53-2.35,1.1-3.43,1.69-.03.02-.06.02-.09.02Zm58.27,0s-.05,0-.08-.02c-1.22-.56-2.41-1.07-3.53-1.51-.1-.04-.15-.15-.11-.25.04-.1.15-.15.25-.11,1.13.44,2.32.95,3.55,1.51.1.04.14.16.09.26-.03.07-.1.11-.17.11Zm-7.17-2.73s-.03,0-.05,0c-.29-.08-.58-.16-.86-.24-.25-.07-.51-.15-.76-.22-.28-.08-.56-.16-.83-.24-.31-.09-.62-.18-.94-.27l-.3-.08c-.1-.03-.17-.13-.14-.23.03-.1.13-.17.23-.14l.31.08c.33.08.64.18.96.27.27.08.54.16.82.24.25.07.51.14.76.22.28.08.57.16.86.24.1.03.16.13.13.24-.02.08-.1.14-.19.14Zm-44.07-.34c-.08,0-.16-.05-.18-.13-.03-.1.02-.21.12-.24,1.18-.4,2.43-.76,3.7-1.08.1-.03.21.04.23.14.03.1-.04.21-.14.23-1.27.32-2.5.68-3.67,1.08-.02,0-.04,0-.06,0Zm36.62-1.52s-.02,0-.04,0c-1.24-.24-2.51-.45-3.78-.63-.11-.02-.18-.11-.16-.22.01-.11.11-.18.22-.16,1.28.18,2.55.4,3.8.64.1.02.17.12.15.22-.02.09-.1.16-.19.16Zm-29.21-.46c-.06,0-.12-.03-.16-.08-.06-.09-.04-.21.05-.27.26-.17.41-.46.41-.77v-2.75c0-.11.09-.19.19-.19s.19.09.19.19v2.75c0,.43-.22.84-.58,1.09-.03.02-.07.03-.11.03Zm21.94-1.25c-.08,0-.15-.05-.18-.13-.05-.14-.07-.28-.07-.42v-3.47c0-.11.09-.19.19-.19s.19.09.19.19v3.47c0,.1.02.2.05.3.03.1-.02.21-.12.24-.02,0-.04,0-.06,0Zm-21.44-6.26c-.11,0-.19-.09-.19-.19v-3.84c0-.11.09-.19.19-.19s.19.09.19.19v3.84c0,.11-.09.19-.19.19Zm21.38-1.41c-.11,0-.19-.09-.19-.19v-3.84c0-.11.09-.19.19-.19s.19.09.19.19v3.84c0,.11-.09.19-.19.19Zm-21.38-6.27c-.11,0-.19-.09-.19-.19v-2.19c0-.6.23-1.18.64-1.63.07-.08.19-.08.27-.01.08.07.08.19.01.27-.35.38-.54.86-.54,1.37v2.19c0,.11-.09.19-.19.19Zm21.38-1.41c-.11,0-.19-.09-.19-.19v-.78c0-.97-.69-1.81-1.64-2-.1-.02-.17-.12-.15-.23.02-.1.12-.17.23-.15,1.13.23,1.95,1.22,1.95,2.37v.78c0,.11-.09.19-.19.19Zm-5.64-3.01h-3.84c-.11,0-.19-.09-.19-.19s.09-.19.19-.19h3.84c.11,0,.19.09.19.19s-.09.19-.19.19Zm-7.68,0h-3.84c-.11,0-.19-.09-.19-.19s.09-.19.19-.19h3.84c.11,0,.19.09.19.19s-.09.19-.19.19Z"></path>
  <path fill="url(#j)" d="m453.19,769.32c0,.11.09.19.19.19h19.44c.1,0,.18-.07.19-.16.01-.09-.04-.18-.13-.21l-15.85-4.89h3.25c.11,0,.19-.09.19-.19s-.09-.19-.19-.19h-4.53c-.1,0-.18.07-.19.16-.01.09.04.18.13.21l15.85,4.89h-18.17c-.11,0-.19.09-.19.19Zm72.44-73.66c0-.11-.09-.19-.19-.19h-24.82s-.03.02-.05.02c-.03,0-.05.01-.07.03-.02.02-.03.03-.04.06,0,.02-.03.03-.03.04,0,0,0,.01,0,.02,0,0,0,.01,0,.02,0,.02.02.03.02.05,0,.02.01.05.03.07.02.02.04.03.06.04.02,0,.02.03.04.03l21.05,4.88h-9.08c-.11,0-.19.09-.19.19s.09.19.19.19h10.76s.09-.02.13-.05c.01-.01.01-.02.02-.04.01-.02.03-.03.04-.06,0,0,0-.01,0-.02,0,0,0-.01,0-.02,0-.02-.02-.03-.02-.05,0-.02-.01-.05-.03-.07-.02-.02-.04-.03-.06-.04-.02,0-.02-.03-.04-.03l-21.05-4.88h23.14c.11,0,.19-.09.19-.19Zm6.89,62.95l-19.18-4.88h19.08c.1,0,.18-.08.19-.17,0-.1-.06-.19-.15-.21l-24.3-4.88h23.26c.1,0,.19-.08.19-.18,0-.1-.07-.19-.17-.2l-38.2-4.88h35.67c.1,0,.19-.08.19-.18,0-.1-.07-.19-.17-.2l-53.56-4.88h48.43c.1,0,.19-.08.19-.18,0-.1-.07-.19-.18-.2l-58.25-4.88h48.39c.1,0,.19-.08.19-.18,0-.1-.07-.19-.17-.2l-53.95-4.88h35.29c.1,0,.19-.08.19-.18,0-.1-.07-.19-.17-.2l-39.14-4.88h22c.1,0,.18-.07.19-.17,0-.1-.06-.19-.15-.21l-24.3-4.88h18.54c.1,0,.18-.07.19-.17.01-.1-.05-.19-.14-.21l-19.14-4.88h18.01c.1,0,.18-.07.19-.17.01-.1-.05-.19-.14-.21l-17.4-4.88h18.72c.1,0,.18-.07.19-.17.01-.09-.04-.18-.14-.21l-16.89-4.89h21.93c.1,0,.18-.07.19-.17.01-.1-.05-.19-.14-.21l-18.45-4.88h38.65c.1,0,.18-.08.19-.18,0-.1-.06-.19-.16-.2l-31.8-4.88h60.32c.1,0,.19-.08.19-.18,0-.1-.07-.19-.17-.2l-47.94-4.88h34.7c.1,0,.18-.08.19-.18,0-.1-.06-.19-.16-.21l-28.19-4.88h14.54c.09,0,.18-.07.19-.16.01-.09-.04-.18-.13-.21l-15.58-4.89h15.52c.09,0,.18-.07.19-.16.01-.09-.04-.18-.13-.21l-15.58-4.89h15.52c.09,0,.18-.07.19-.16.01-.09-.04-.18-.13-.21l-15.58-4.89h15.52c.11,0,.19-.09.19-.19s-.09-.19-.19-.19h-16.77c-.09,0-.18.07-.19.16s.04.18.13.21l15.58,4.89h-15.52c-.09,0-.18.07-.19.16s.04.18.13.21l15.58,4.89h-15.52c-.09,0-.18.07-.19.16s.04.18.13.21l15.58,4.89h-15.53c-.1,0-.18.08-.19.18,0,.1.06.19.16.21l28.19,4.88h-36.25c-.1,0-.19.08-.19.18s.07.19.17.2l47.94,4.88h-59.05c-.1,0-.18.08-.19.18,0,.1.06.19.16.2l31.8,4.88h-37.61c-.1,0-.18.07-.19.17-.01.1.05.19.14.21l18.45,4.88h-21.81c-.1,0-.18.07-.19.17-.01.09.04.18.14.21l16.89,4.88h-18.76c-.1,0-.18.07-.19.17-.01.1.05.19.14.21l17.4,4.89h-18.14c-.1,0-.18.07-.19.17-.01.1.05.19.14.21l19.14,4.88h-18.94c-.1,0-.18.07-.19.17s.06.19.15.21l24.3,4.88h-23.16c-.1,0-.19.08-.19.18,0,.1.07.19.17.2l39.14,4.88h-36.45c-.1,0-.19.08-.19.18,0,.1.07.19.17.2l53.95,4.88h-48.73c-.1,0-.19.08-.19.18,0,.1.07.19.18.2l58.25,4.88h-48.06c-.1,0-.19.08-.19.18,0,.1.07.19.17.2l53.56,4.88h-34.47c-.1,0-.19.08-.19.18,0,.1.07.19.17.2l38.2,4.88h-22.17c-.1,0-.18.08-.19.17,0,.1.06.19.15.21l24.3,4.88h-18.68c-.1,0-.18.07-.19.17-.01.1.05.19.14.21l19.18,4.88h-17.98c-.1,0-.18.07-.19.17-.01.09.05.18.14.21l17.23,4.88h-18.67c-.1,0-.18.07-.19.17-.01.09.04.18.14.21l16.61,4.88h-22.58c-.1,0-.18.07-.19.17-.01.1.05.19.14.21l18.75,4.88h-73.14c-.1,0-.19.08-.19.18,0,.1.07.19.18.2l63.26,4.88h-57.11c-.1,0-.19.08-.19.18,0,.1.07.19.17.2l45.61,4.88h-29.68c-.1,0-.18.08-.19.17,0,.1.06.19.15.21l24.83,4.88h-14.8c-.09,0-.18.07-.19.16-.01.09.04.18.13.21l15.58,4.89h-15.52c-.09,0-.18.07-.19.16-.01.09.04.18.13.21l15.58,4.89h-15.52c-.09,0-.18.07-.19.16-.01.09.04.18.13.21l15.58,4.89h-15.52c-.11,0-.19.09-.19.19s.09.19.19.19h16.77c.09,0,.18-.07.19-.16s-.04-.18-.13-.21l-15.58-4.89h15.52c.09,0,.18-.07.19-.16s-.04-.18-.13-.21l-15.58-4.89h15.52c.09,0,.18-.07.19-.16.01-.09-.04-.18-.13-.21l-15.58-4.89h15.52c.1,0,.18-.07.19-.17,0-.1-.06-.19-.15-.21l-24.83-4.88h31.3c.1,0,.19-.08.19-.18,0-.1-.07-.19-.17-.2l-45.61-4.88h58.5c.1,0,.19-.08.19-.18,0-.1-.07-.19-.18-.2l-63.26-4.88h69.65c.1,0,.18-.07.19-.17.01-.1-.05-.19-.14-.21l-18.75-4.88h22.42c.1,0,.18-.07.19-.17.01-.09-.04-.18-.14-.21l-16.61-4.89h18.72c.1,0,.18-.07.19-.17.01-.09-.05-.18-.14-.21l-17.23-4.88h18.13c.1,0,.18-.07.19-.17.01-.1-.05-.19-.14-.21Z"></path>
  <path fill="url(#k)" d="m215.99,414.29c-6.1,0-11.65-3.88-13.83-9.66-3.35-8.9-10.41-15.81-19.36-18.97-5.96-2.1-9.97-7.71-9.97-13.94v-46.94c0-6.23,4-11.83,9.97-13.94,8.95-3.16,16.01-10.07,19.36-18.97,2.18-5.78,7.74-9.66,13.83-9.66h227.48c6.1,0,11.66,3.89,13.84,9.67,3.32,8.81,10.28,15.7,19.11,18.9,5.9,2.13,9.86,7.72,9.86,13.9v47.11c0,6.18-3.96,11.76-9.85,13.9-8.83,3.2-15.8,10.09-19.11,18.91-2.18,5.79-7.74,9.67-13.84,9.67h-227.48Z"></path>
  <path fill="#009fb7" d="M423.97 348.26c0-7.86-6.37-14.23-14.22-14.23s-14.24 6.37-14.24 14.23 6.37 14.24 14.24 14.24 14.22-6.37 14.22-14.24ZM263.6 348.26c0-7.86-6.38-14.23-14.24-14.23s-14.23 6.37-14.23 14.23 6.38 14.24 14.23 14.24 14.24-6.37 14.24-14.24Z" opacity=".5"></path>
  <path fill="#009fb7" d="M463.02 348.25c0-4.38-3.55-7.92-7.93-7.92s-7.93 3.54-7.93 7.92 3.55 7.93 7.93 7.93 7.93-3.56 7.93-7.93ZM211.93 348.25c0-4.38-3.54-7.92-7.93-7.92s-7.92 3.54-7.92 7.92 3.54 7.93 7.92 7.93 7.93-3.56 7.93-7.93Z" opacity=".25"></path>
  <path fill="#009fb7" d="m329.56,305.49c-23.62,0-42.77,19.14-42.77,42.77s19.14,42.78,42.77,42.78,42.77-19.16,42.77-42.78-19.14-42.77-42.77-42.77Zm13.72,56.4c-1.21,1.78-3.02,3.2-5.43,4.25-1.34.58-2.86.98-4.53,1.24v6.46c0,.44-.36.8-.8.8h-6.08c-.44,0-.8-.36-.8-.8v-6.34c-1.79-.19-3.55-.52-5.27-1.01-.1-.03-.18-.06-.28-.09-.22-.07-.42-.14-.63-.21h0l-.31-.11c-2.22-.75-4.47-2.13-4.47-2.13-.56-.34-.8-1.12-.53-1.73l1.98-4.4c.27-.6.96-.81,1.52-.47,0,0,2.09,1.28,4.01,1.96.25.09.49.18.75.27.07.02.13.03.2.06,2.17.68,4.33,1.02,6.5,1.02,2.49,0,4.32-.37,5.51-1.11,1.19-.74,1.78-1.72,1.78-2.95,0-.9-.35-1.64-1.05-2.24-.7-.59-1.6-1.07-2.7-1.43-1.1-.36-2.58-.76-4.46-1.19-2.89-.68-5.24-1.37-7.08-2.05-1.84-.69-3.41-1.79-4.73-3.3-1.32-1.51-1.97-3.53-1.97-6.05,0-2.2.59-4.19,1.79-5.97,1.19-1.79,2.98-3.2,5.37-4.24,1.22-.53,2.58-.92,4.08-1.18v-6.26c0-.44.36-.8.8-.8h6.08c.44,0,.8.36.8.8v6.04c1.38.14,2.75.37,4.1.7.22.05.42.12.64.18.21.06.42.12.63.18,0,0,.01,0,.02,0l.31.1c1.65.53,3.39,1.46,3.39,1.46.58.31.86,1.07.61,1.68l-1.8,4.42c-.25.62-.93.87-1.53.57,0,0-1.77-.89-3.19-1.37-.32-.11-.64-.21-.96-.31-1.76-.5-3.51-.75-5.27-.75-2.45,0-4.26.4-5.43,1.19-1.17.79-1.76,1.84-1.76,3.13s.68,2.26,2.03,2.9c1.35.63,3.41,1.25,6.19,1.86,2.88.68,5.24,1.37,7.08,2.06,1.84.68,3.41,1.76,4.73,3.24,1.31,1.48,1.97,3.48,1.97,6,0,2.16-.61,4.13-1.81,5.92Z" opacity=".75"></path>
  <rect width="134.28" height="8.78" x="514.72" y="301.96" fill="url(#b)"></rect>
  <path fill="url(#l)" d="m480.98,219.89c-5.29,2.86-9.97,6.64-13.89,11.24-3.37,3.96-6.08,8.44-8.06,13.33-1.01,2.51-1.82,5.47-2.4,8.79l8.65,1.51c.47-2.72,1.11-5.08,1.89-7.01,1.62-4.01,3.84-7.69,6.6-10.93,3.22-3.78,7.04-6.87,11.38-9.21,6.65-3.59,14.28-5.2,21.9-4.59,1.5.12,2.88-.53,3.76-1.62l-7.29-7.29c-7.86.06-15.65,2.05-22.55,5.77Z"></path>
  <path fill="#ff4a0b" d="m688.61,231.14c-3.92-4.61-8.6-8.39-13.89-11.24-6.9-3.72-14.69-5.72-22.55-5.77-2.39-16.11-10.04-31.11-21.79-42.62-14.14-13.84-32.79-21.46-52.53-21.46s-38.39,7.62-52.53,21.46c-11.76,11.51-19.4,26.51-21.79,42.62l7.29,7.29c.53-.65.87-1.46.96-2.36,1.43-15.59,8.42-30.25,19.69-41.27,12.49-12.22,28.96-18.95,46.39-18.95s33.91,6.73,46.39,18.95c11.27,11.03,18.26,25.69,19.69,41.27.22,2.4,2.33,4.16,4.72,3.97,7.62-.61,15.25,1,21.9,4.59,4.33,2.34,8.16,5.44,11.37,9.21,6.09,7.14,9.44,16.24,9.44,25.6,0,21.8-17.73,39.53-39.53,39.53h-.29c-.06,0-.12,0-.18,0h-2.37v8.78h2.18c.1,0,.2,0,.3,0,.12,0,.24,0,.36,0,26.64,0,48.31-21.67,48.31-48.31,0-11.45-4.1-22.56-11.54-31.29Z"></path>
  <g>
    <path fill="url(#m)" d="m755.34,661.78h-1.76v41.58h-118.19c-6.39,0-12.76.74-18.98,2.21l-2.6.61c-2.56.6-4.37,2.89-4.37,5.52v57.62c0,3.66,3.41,6.36,6.97,5.52h0c6.22-1.47,12.59-2.21,18.98-2.21h119.74c4.51,0,8.35-3.5,8.52-8v-94.2c.18-4.74-3.62-8.65-8.32-8.65Z"></path>
    <path fill="#ff4a0b" d="m753.58,700.49h-118.19c-6.74,0-13.48.78-20.03,2.33l-2.6.61c-4.67,1.1-7.92,5.21-7.92,10.01h0v55.88c0,3.06,2.39,5.45,5.26,5.65h0s.15,0,.15,0c.16,0,.32,0,.48,0h4.12s0,0,0,0c-2.92-.14-5.39-2.55-5.39-5.66v-57.62c0-2.63,1.81-4.92,4.37-5.52l2.6-.61c6.22-1.47,12.59-2.21,18.98-2.21h118.19v-2.87Z"></path>
    <path fill="#9f0000" d="m754.68,700.49h0c2.88-.05,5.32-2.26,5.49-5.13v-24.93s0-.07,0-.11c.12-3.1-2.37-5.67-5.45-5.67h-1.15v35.84h1.11Z"></path>
    <g>
      <path fill="#00416d" d="m675.65,715.13c0-.99-.8-1.79-1.79-1.79h-38.48c-4.88,0-9.76.49-14.54,1.47-.83.17-1.42.91-1.42,1.75v45.36c0,1.1.98,1.92,2.07,1.76,4.59-.7,9.24-1.05,13.89-1.05h38.48c.99,0,1.79-.8,1.79-1.79v-45.72Z"></path>
      <path fill="#fff" d="m626.88,757.82c-.82,0-1.58-.45-1.98-1.18-.05-.09-.02-.21.08-.26.09-.05.21-.02.26.08.36.65,1.06,1.04,1.8.97.51-.04,1.01-.08,1.52-.12.11-.01.2.07.2.18,0,.11-.07.2-.18.2-.51.04-1.01.07-1.51.12-.06,0-.13,0-.19,0Zm5.6-.32c-.1,0-.19-.08-.19-.19,0-.11.08-.2.19-.2.96-.03,1.94-.04,2.92-.04h1c.11,0,.19.09.19.19s-.09.19-.19.19h-1c-.97,0-1.95.01-2.91.04h0Zm35.19-.04h-3.91c-.11,0-.19-.09-.19-.19s.09-.19.19-.19h3.91c.11,0,.19.09.19.19s-.09.19-.19.19Zm-7.82,0h-3.91c-.11,0-.19-.09-.19-.19s.09-.19.19-.19h3.91c.11,0,.19.09.19.19s-.09.19-.19.19Zm-7.82,0h-3.91c-.11,0-.19-.09-.19-.19s.09-.19.19-.19h3.91c.11,0,.19.09.19.19s-.09.19-.19.19Zm-7.82,0h-3.91c-.11,0-.19-.09-.19-.19s.09-.19.19-.19h3.91c.11,0,.19.09.19.19s-.09.19-.19.19Zm26.07-2.2c-.11,0-.19-.09-.19-.19v-3.91c0-.11.09-.19.19-.19s.19.09.19.19v3.91c0,.11-.09.19-.19.19Zm-45.46-2.38c-.11,0-.19-.09-.19-.19v-3.91c0-.11.09-.19.19-.19s.19.09.19.19v3.91c0,.11-.09.19-.19.19Zm45.46-5.44c-.11,0-.19-.09-.19-.19v-3.91c0-.11.09-.19.19-.19s.19.09.19.19v3.91c0,.11-.09.19-.19.19Zm-45.46-2.38c-.11,0-.19-.09-.19-.19v-3.91c0-.11.09-.19.19-.19s.19.09.19.19v3.91c0,.11-.09.19-.19.19Zm45.46-5.44c-.11,0-.19-.09-.19-.19v-3.91c0-.11.09-.19.19-.19s.19.09.19.19v3.91c0,.11-.09.19-.19.19Zm-45.46-2.38c-.11,0-.19-.09-.19-.19v-3.91c0-.11.09-.19.19-.19s.19.09.19.19v3.91c0,.11-.09.19-.19.19Zm45.46-5.44c-.11,0-.19-.09-.19-.19v-3.91c0-.11.09-.19.19-.19s.19.09.19.19v3.91c0,.11-.09.19-.19.19Zm-45.46-2.38c-.11,0-.19-.09-.19-.19v-3.91c0-.11.09-.19.19-.19s.19.09.19.19v3.91c0,.11-.09.19-.19.19Zm45.46-5.44c-.11,0-.19-.09-.19-.19v-2.96c0-.29-.06-.57-.19-.83-.05-.1,0-.21.09-.26.09-.05.21,0,.26.09.15.31.23.65.23,1v2.96c0,.11-.09.19-.19.19Zm-45.46-2.39c-.11,0-.19-.07-.19-.18v-.03c0-1.14.86-2.11,2.01-2.26.29-.04.58-.07.88-.11.11-.02.2.06.21.17.01.11-.06.2-.17.21-.29.03-.58.07-.87.11-.95.12-1.67.93-1.67,1.88,0,.11-.09.21-.19.21Zm6.61-2.54c-.1,0-.19-.08-.19-.18,0-.11.08-.2.18-.2,1.3-.08,2.61-.12,3.92-.12h0c.11,0,.19.09.19.19s-.09.19-.19.19c-1.3,0-2.61.04-3.9.12h-.01Zm35.19-.12h-3.91c-.11,0-.19-.09-.19-.19s.09-.19.19-.19h3.91c.11,0,.19.09.19.19s-.09.19-.19.19Zm-7.82,0h-3.91c-.11,0-.19-.09-.19-.19s.09-.19.19-.19h3.91c.11,0,.19.09.19.19s-.09.19-.19.19Zm-7.82,0h-3.91c-.11,0-.19-.09-.19-.19s.09-.19.19-.19h3.91c.11,0,.19.09.19.19s-.09.19-.19.19Zm-7.82,0h-3.91c-.11,0-.19-.09-.19-.19s.09-.19.19-.19h3.91c.11,0,.19.09.19.19s-.09.19-.19.19Z"></path>
      <path fill="#002457" d="m672.47,712.16h0c-.27-.15-.57-.24-.9-.24h-38.48c-4.88,0-9.76.49-14.54,1.47-.83.17-1.42.91-1.42,1.75v45.36c0,.66.36,1.22.87,1.52h0s2.27,1.42,2.27,1.42h0c-.5-.32-.84-.87-.84-1.51v-45.36c0-.84.59-1.58,1.42-1.75,4.78-.98,9.66-1.47,14.54-1.47h38.48c.34,0,.66.1.93.27h0s-2.33-1.46-2.33-1.46Z"></path>
    </g>
    <path fill="#fff" d="m623.25,708.14c-.02-.1-.11-.17-.22-.16-1.26.2-2.53.43-3.79.69-.1.02-.17.12-.15.23.02.09.1.15.19.15.01,0,.03,0,.04,0,1.25-.26,2.52-.49,3.77-.69.11-.02.18-.11.16-.22Zm.87,61.19c-1.27.17-2.55.36-3.81.58-.11.02-.17.12-.16.22.02.09.1.16.19.16.01,0,.02,0,.03,0,1.25-.22,2.53-.42,3.79-.58.11-.01.18-.11.17-.22-.01-.11-.11-.18-.22-.17Zm6.77-62c0-.11-.11-.18-.2-.18-1.28.08-2.57.19-3.84.32-.11.01-.18.11-.17.21.01.1.09.17.19.17,0,0,.01,0,.02,0,1.26-.14,2.55-.25,3.82-.32.11,0,.19-.1.18-.2Zm.91,61.34h0c-1.27.05-2.56.14-3.84.25-.11,0-.18.1-.17.21,0,.1.09.18.19.18,0,0,.01,0,.02,0,1.27-.11,2.56-.19,3.83-.24.11,0,.19-.09.18-.2,0-.1-.09-.18-.19-.18Zm-18.32-2.66v-3.84c0-.11-.09-.19-.19-.19s-.19.09-.19.19v3.84c0,.11.09.19.19.19s.19-.09.19-.19Zm125.89,2.59h-3.84c-.11,0-.19.09-.19.19s.09.19.19.19h3.84c.11,0,.19-.09.19-.19s-.09-.19-.19-.19Zm-126.09-48.5c.11,0,.19-.09.19-.19v-3.84c0-.11-.09-.19-.19-.19s-.19.09-.19.19v3.84c0,.11.09.19.19.19Zm132.86-12.9c0-.11-.09-.19-.19-.19h-3.84c-.11,0-.19.09-.19.19s.09.19.19.19h3.84c.11,0,.19-.09.19-.19Zm7.68,0c0-.11-.09-.19-.19-.19h-3.84c-.11,0-.19.09-.19.19s.09.19.19.19h3.84c.11,0,.19-.09.19-.19Zm-115.26,0c0-.11-.09-.19-.19-.19h-2.98c-.29,0-.57,0-.86,0-.11,0-.19.09-.19.19,0,.11.09.19.19.19h0c.29,0,.57,0,.86,0h2.98c.11,0,.19-.09.19-.19Zm108.49,61.39h-3.84c-.11,0-.19.09-.19.19s.09.19.19.19h3.84c.11,0,.19-.09.19-.19s-.09-.19-.19-.19Zm14.47-2.73c-.86.89-1.93,1.61-3.1,2.08-.1.04-.15.15-.11.25.03.07.1.12.18.12.02,0,.05,0,.07-.01,1.22-.49,2.33-1.24,3.23-2.17.07-.08.07-.2,0-.27-.08-.07-.2-.07-.27,0Zm2.02-2.96s.04,0,.05,0c.02,0,.04-.01.06-.02v-1.53c-.04.44-.12.88-.24,1.3-.03.1.03.21.13.24Zm-8.8,5.68h-3.84c-.11,0-.19.09-.19.19s.09.19.19.19h3.84c.11,0,.19-.09.19-.19s-.09-.19-.19-.19Zm-138.2,2.07c-.35.08-.7.16-1.05.24-.13.03-.26.05-.39.05-.61,0-1.34-.4-1.56-1.17-.03-.1-.14-.16-.24-.13-.1.03-.16.14-.13.24.28.95,1.18,1.44,1.93,1.44.16,0,.32-.02.47-.06.35-.08.7-.16,1.05-.24.1-.02.17-.13.15-.23-.02-.1-.13-.17-.23-.15Zm146.49-68.57c-.05.1,0,.21.09.26.03.01.05.02.08.02.07,0,.14-.04.17-.11.1-.23.2-.45.28-.68v-1.75c-.08.78-.29,1.54-.63,2.27Zm-24.58,5.11c0-.11-.09-.19-.19-.19h-3.84c-.11,0-.19.09-.19.19s.09.19.19.19h3.84c.11,0,.19-.09.19-.19Zm22.54-2.16c-.07-.08-.19-.09-.27-.03-.97.79-2.12,1.37-3.33,1.69-.1.03-.16.13-.14.23.02.09.1.14.19.14.02,0,.03,0,.05,0,1.26-.34,2.46-.95,3.47-1.77.08-.07.1-.19.03-.27Zm-147.71,22.74c.11,0,.19-.09.19-.19v-3.84c0-.11-.09-.19-.19-.19s-.19.09-.19.19v3.84c0,.11.09.19.19.19Zm0,15.37c.11,0,.19-.09.19-.19v-3.84c0-.11-.09-.19-.19-.19s-.19.09-.19.19v3.84c0,.11.09.19.19.19Zm0-7.68c.11,0,.19-.09.19-.19v-3.84c0-.11-.09-.19-.19-.19s-.19.09-.19.19v3.84c0,.11.09.19.19.19Zm0-23.05c.11,0,.19-.09.19-.19v-.53c0-.76.52-1.42,1.26-1.59l.84-.2c.1-.02.17-.13.14-.23-.02-.1-.13-.17-.23-.14l-.84.2c-.92.22-1.56,1.02-1.56,1.97v.53c0,.11.09.19.19.19Zm0,46.1c.11,0,.19-.09.19-.19v-3.84c0-.11-.09-.19-.19-.19s-.19.09-.19.19v3.84c0,.11.09.19.19.19Zm0-7.68c.11,0,.19-.09.19-.19v-3.84c0-.11-.09-.19-.19-.19s-.19.09-.19.19v3.84c0,.11.09.19.19.19Zm103.04,17.76h-3.84c-.11,0-.19.09-.19.19s.09.19.19.19h3.84c.11,0,.19-.09.19-.19s-.09-.19-.19-.19Zm-54.7-61.39c0-.11-.09-.19-.19-.19h-3.84c-.11,0-.19.09-.19.19s.09.19.19.19h3.84c.11,0,.19-.09.19-.19Zm.91,61.39h-3.84c-.11,0-.19.09-.19.19s.09.19.19.19h3.84c.11,0,.19-.09.19-.19s-.09-.19-.19-.19Zm7.68,0h-3.84c-.11,0-.19.09-.19.19s.09.19.19.19h3.84c.11,0,.19-.09.19-.19s-.09-.19-.19-.19Zm-.91-61.39c0-.11-.09-.19-.19-.19h-3.84c-.11,0-.19.09-.19.19s.09.19.19.19h3.84c.11,0,.19-.09.19-.19Zm7.68,0c0-.11-.09-.19-.19-.19h-3.84c-.11,0-.19.09-.19.19s.09.19.19.19h3.84c.11,0,.19-.09.19-.19Zm.91,61.39h-3.84c-.11,0-.19.09-.19.19s.09.19.19.19h3.84c.11,0,.19-.09.19-.19s-.09-.19-.19-.19Zm-38.42,0h-3.84c-.11,0-.19.09-.19.19s.09.19.19.19h3.84c.11,0,.19-.09.19-.19s-.09-.19-.19-.19Zm45.19-61.39c0-.11-.09-.19-.19-.19h-3.84c-.11,0-.19.09-.19.19s.09.19.19.19h3.84c.11,0,.19-.09.19-.19Zm-29.82,61.39h-3.84c-.11,0-.19.09-.19.19s.09.19.19.19h3.84c.11,0,.19-.09.19-.19s-.09-.19-.19-.19Zm-8.6-61.39c0-.11-.09-.19-.19-.19h-3.84c-.11,0-.19.09-.19.19s.09.19.19.19h3.84c.11,0,.19-.09.19-.19Zm7.68,0c0-.11-.09-.19-.19-.19h-3.84c-.11,0-.19.09-.19.19s.09.19.19.19h3.84c.11,0,.19-.09.19-.19Zm-6.77,61.39h-3.84c-.11,0-.19.09-.19.19s.09.19.19.19h3.84c.11,0,.19-.09.19-.19s-.09-.19-.19-.19Zm53.79,0h-3.84c-.11,0-.19.09-.19.19s.09.19.19.19h3.84c.11,0,.19-.09.19-.19s-.09-.19-.19-.19Zm22.14-61.39c0-.11-.09-.19-.19-.19h-3.84c-.11,0-.19.09-.19.19s.09.19.19.19h3.84c.11,0,.19-.09.19-.19Zm-7.68,0c0-.11-.09-.19-.19-.19h-3.84c-.11,0-.19.09-.19.19s.09.19.19.19h3.84c.11,0,.19-.09.19-.19Zm15.37,0c0-.11-.09-.19-.19-.19h-3.84c-.11,0-.19.09-.19.19s.09.19.19.19h3.84c.11,0,.19-.09.19-.19Zm-6.77,61.39h-3.84c-.11,0-.19.09-.19.19s.09.19.19.19h3.84c.11,0,.19-.09.19-.19s-.09-.19-.19-.19Zm-15.37,0h-3.84c-.11,0-.19.09-.19.19s.09.19.19.19h3.84c.11,0,.19-.09.19-.19s-.09-.19-.19-.19Zm23.05,0h-3.84c-.11,0-.19.09-.19.19s.09.19.19.19h3.84c.11,0,.19-.09.19-.19s-.09-.19-.19-.19Zm-38.42,0h-3.84c-.11,0-.19.09-.19.19s.09.19.19.19h3.84c.11,0,.19-.09.19-.19s-.09-.19-.19-.19Zm-.91-61.39c0-.11-.09-.19-.19-.19h-3.84c-.11,0-.19.09-.19.19s.09.19.19.19h3.84c.11,0,.19-.09.19-.19Zm15.37,0c0-.11-.09-.19-.19-.19h-3.84c-.11,0-.19.09-.19.19s.09.19.19.19h3.84c.11,0,.19-.09.19-.19Zm-7.68,0c0-.11-.09-.19-.19-.19h-3.84c-.11,0-.19.09-.19.19s.09.19.19.19h3.84c.11,0,.19-.09.19-.19Zm-14.45,61.39h-3.84c-.11,0-.19.09-.19.19s.09.19.19.19h3.84c.11,0,.19-.09.19-.19s-.09-.19-.19-.19Z" opacity=".5"></path>
    <path fill="url(#n)" d="m755.34,661.78h-1.76v2.87h1.15c3.08,0,5.57,2.56,5.45,5.67,0,.04,0,.07,0,.11v24.93c-.17,2.87-2.61,5.09-5.49,5.13h0s-.08,0-.08,0h-119.21c-6.74,0-13.48.78-20.03,2.33l-2.6.61c-4.67,1.1-7.92,5.21-7.92,10.01h0v55.88c0,3.06,2.39,5.45,5.26,5.65h0s.15,0,.15,0c.16,0,.32,0,.48,0h4.12s0,0,0,0c-2.92-.14-5.39-2.55-5.39-5.66v-57.62c0-2.63,1.81-4.92,4.37-5.52l2.6-.61c6.22-1.47,12.59-2.21,18.98-2.21h119.74c4.51,0,8.35-3.5,8.52-8v-24.93c.18-4.74-3.62-8.65-8.32-8.65Z"></path>
  </g>
</svg>